<svg class="animated" id="freepik_stories-data" xmlns="http://www.w3.org/2000/svg" viewBox="0 0 500 500" version="1.1" xmlns:xlink="http://www.w3.org/1999/xlink" xmlns:svgjs="http://svgjs.com/svgjs"><style>svg#freepik_stories-data:not(.animated) .animable {opacity: 0;}svg#freepik_stories-data.animated #freepik--background-complete--inject-94 {animation: 1s 1 forwards cubic-bezier(.36,-0.01,.5,1.38) slideUp;animation-delay: 0s;}svg#freepik_stories-data.animated #freepik--Shadow--inject-94 {animation: 1s 1 forwards cubic-bezier(.36,-0.01,.5,1.38) slideUp;animation-delay: 0s;}svg#freepik_stories-data.animated #freepik--chart-3--inject-94 {animation: 1s 1 forwards cubic-bezier(.36,-0.01,.5,1.38) slideUp;animation-delay: 0s;}svg#freepik_stories-data.animated #freepik--chart-2--inject-94 {animation: 1s 1 forwards cubic-bezier(.36,-0.01,.5,1.38) slideUp;animation-delay: 0s;}svg#freepik_stories-data.animated #freepik--Character--inject-94 {animation: 1s 1 forwards cubic-bezier(.36,-0.01,.5,1.38) slideUp;animation-delay: 0s;}svg#freepik_stories-data.animated #freepik--speech-bubble--inject-94 {animation: 0.6s 1 forwards cubic-bezier(.36,-0.01,.5,1.38) slideUp;animation-delay: 0s;}svg#freepik_stories-data.animated #freepik--chart-1--inject-94 {animation: 1s 1 forwards cubic-bezier(.36,-0.01,.5,1.38) slideUp;animation-delay: 0s;}            @keyframes slideUp {                0% {                    opacity: 0;                    transform: translateY(30px);                }                100% {                    opacity: 1;                    transform: inherit;                }            }        </style><g id="freepik--background-complete--inject-94" class="animable" style="transform-origin: 263.43px 246.41px;"><path d="M118.4,139a2.3,2.3,0,0,1,0-2.4c.12-.21.24-.41.35-.62s.22-.42.32-.64a2.3,2.3,0,0,1,2-1.34l3-.09-.3-9.62-3,.09a2.31,2.31,0,0,1-2.08-1.21,11.74,11.74,0,0,0-.75-1.22,2.29,2.29,0,0,1-.15-2.39l1.39-2.6-8.49-4.56-1.39,2.6a2.3,2.3,0,0,1-2.08,1.2,13.58,13.58,0,0,0-1.43,0,2.28,2.28,0,0,1-2.16-1.06l-1.56-2.51L93.9,117.7l1.56,2.52a2.28,2.28,0,0,1,0,2.4l-.35.61c-.11.21-.22.42-.32.64a2.3,2.3,0,0,1-2,1.34l-3,.09.3,9.62,2.95-.09A2.29,2.29,0,0,1,95.15,136a11.82,11.82,0,0,0,.76,1.22,2.29,2.29,0,0,1,.15,2.39l-1.39,2.6,8.49,4.55,1.39-2.59a2.27,2.27,0,0,1,2.08-1.2,13.85,13.85,0,0,0,1.44,0,2.26,2.26,0,0,1,2.15,1.06l1.56,2.51,8.18-5.08Zm-15.2-2.41a7.89,7.89,0,1,1,10.68-3.23A7.9,7.9,0,0,1,103.2,136.54Z" style="fill: rgb(235, 235, 235); transform-origin: 106.93px 129.58px;" id="elqor0wvwjnu" class="animable"></path><path d="M89.32,98.15a1.61,1.61,0,0,1-.79-1.49c0-.17,0-.33,0-.5s0-.33,0-.5a1.6,1.6,0,0,1,.79-1.48l1.79-1L87.74,87.3l-1.8,1a1.57,1.57,0,0,1-1.68-.06,9.34,9.34,0,0,0-.87-.5,1.6,1.6,0,0,1-.88-1.43V84.28H75.76v2.06a1.61,1.61,0,0,1-.89,1.43,9.34,9.34,0,0,0-.87.5,1.57,1.57,0,0,1-1.68.06l-1.8-1-3.37,5.84,1.8,1a1.61,1.61,0,0,1,.79,1.49c0,.16,0,.33,0,.49s0,.33,0,.5A1.61,1.61,0,0,1,69,98.15l-1.8,1L70.52,105l1.79-1a1.63,1.63,0,0,1,1.69.06,9.34,9.34,0,0,0,.87.5,1.61,1.61,0,0,1,.89,1.43V108h6.75V106a1.6,1.6,0,0,1,.88-1.43,9.5,9.5,0,0,0,.88-.5A1.61,1.61,0,0,1,86,104l1.79,1,3.37-5.85Zm-10.19,3.54a5.53,5.53,0,1,1,5.53-5.53A5.54,5.54,0,0,1,79.13,101.69Z" style="fill: rgb(235, 235, 235); transform-origin: 79.155px 96.14px;" id="elqe8z9rs87wg" class="animable"></path><path d="M457.87,188.61a1.63,1.63,0,0,1-.78-1.49c0-.17,0-.33,0-.5s0-.33,0-.5a1.58,1.58,0,0,1,.78-1.48l1.79-1-3.37-5.84-1.79,1a1.61,1.61,0,0,1-1.68-.06,9.34,9.34,0,0,0-.87-.5,1.61,1.61,0,0,1-.89-1.43v-2.06h-6.75v2.06a1.61,1.61,0,0,1-.89,1.43c-.29.15-.58.32-.86.5a1.63,1.63,0,0,1-1.69.06l-1.79-1-3.37,5.84,1.8,1a1.61,1.61,0,0,1,.78,1.48c0,.17,0,.33,0,.5s0,.33,0,.5a1.62,1.62,0,0,1-.79,1.49l-1.79,1,3.37,5.84,1.79-1a1.61,1.61,0,0,1,1.68.06,9.34,9.34,0,0,0,.87.5,1.61,1.61,0,0,1,.89,1.43v2.06h6.75v-2.06A1.61,1.61,0,0,1,452,195a9.34,9.34,0,0,0,.87-.5,1.61,1.61,0,0,1,1.68-.06l1.79,1,3.37-5.84Zm-10.18,3.54a5.53,5.53,0,1,1,5.52-5.53A5.54,5.54,0,0,1,447.69,192.15Z" style="fill: rgb(235, 235, 235); transform-origin: 447.71px 186.625px;" id="el66cfh0a5qmh" class="animable"></path><path d="M289.73,357.31s-15.32-42.81-26.1-56.94-30.08-29.13-30.08-29.13S238.82,338.56,289.73,357.31Z" style="fill: rgb(235, 235, 235); transform-origin: 261.64px 314.275px;" id="elar25ci8o1mo" class="animable"></path><path d="M288.8,356.63a211.39,211.39,0,0,1-12.62-20.37,147.48,147.48,0,0,0-7.69-22.54c-.06-.13-.25,0-.21.09,2.11,6.79,4.48,13.49,6.68,20.25-5.68-10.28-11.12-20.71-17.69-30.34a67.77,67.77,0,0,0-6.65-13.57c-.07-.12-.28,0-.21.09A90.19,90.19,0,0,1,255,300.46a106.12,106.12,0,0,0-10.16-12.11c-.24-.24-.64.07-.41.32,8.54,9.43,14.76,20.4,20.73,31.53a174.86,174.86,0,0,1-16.65-18c-.05-.07-.15,0-.1.08a157.46,157.46,0,0,0,17.88,20c4.35,8.15,8.64,16.35,13.69,24-9.47-6.9-17-16.16-24.51-25.09a.2.2,0,0,0-.32.25c7.54,9.85,15.28,19.07,25.61,26a108.53,108.53,0,0,0,7.27,9.74A.52.52,0,0,0,288.8,356.63Z" style="fill: rgb(255, 255, 255); transform-origin: 266.585px 322.757px;" id="elcfl14lhk62" class="animable"></path><path d="M292.09,357.39s-22.75-39.93-17.18-79.2S287,224.83,287,224.83,322.73,285,292.09,357.39Z" style="fill: rgb(235, 235, 235); transform-origin: 289.267px 291.11px;" id="elrykqanfwgx" class="animable"></path><path d="M299.79,293.73A190.85,190.85,0,0,1,292,326.5c-.36-14.36-.93-28.72-1.6-43.08A111.42,111.42,0,0,0,294,256.58c0-.26-.39-.24-.41,0a153.12,153.12,0,0,1-3.37,23.1q-.87-17.76-1.88-35.52a.16.16,0,0,0-.31,0c.39,18.51.76,37,1.26,55.54a148.08,148.08,0,0,1-6.77-21.87c0-.07-.14-.05-.13,0,.83,8.64,3.63,16.94,7,24.9.33,11.83.7,23.66,1.21,35.49-4-12.51-8.18-24.61-9.53-37.88a.14.14,0,0,0-.28,0c.6,14.65,4.68,29.46,9.8,43.15a.72.72,0,0,0,.25.34q.3,6.48.64,13a.48.48,0,0,0,1,0q0-13.29-.32-26.55c4.69-11.47,7.05-24.21,7.9-36.52C300,293.64,299.81,293.62,299.79,293.73Z" style="fill: rgb(255, 255, 255); transform-origin: 290.425px 300.685px;" id="elkf48h46odbk" class="animable"></path><path d="M298.16,287.52a75.57,75.57,0,0,0-1.31,10.69.11.11,0,0,0,.21,0,75,75,0,0,0,1.59-10.67C298.67,287.29,298.21,287.25,298.16,287.52Z" style="fill: rgb(255, 255, 255); transform-origin: 297.75px 292.811px;" id="elb970xkne93p" class="animable"></path><path d="M284.74,258.26c0-.12-.21-.07-.21,0a27.34,27.34,0,0,0,1.25,7.34c.06.19.34.09.3-.1C285.55,263.12,285.2,260.69,284.74,258.26Z" style="fill: rgb(255, 255, 255); transform-origin: 285.307px 261.945px;" id="elnom11zvopj9" class="animable"></path><path d="M298.46,355.63s8.37-44.24,25.63-63.46,40.57-25.95,40.57-25.95S339.81,342.07,298.46,355.63Z" style="fill: rgb(235, 235, 235); transform-origin: 331.56px 310.925px;" id="elkvjzwsz1slb" class="animable"></path><path d="M329.44,322.83c-6.93,6.53-13.76,12.78-21.67,18.06q6.63-12.7,14.35-24.71c8.4-4.72,16.78-9.67,22.92-17.25a.12.12,0,0,0-.18-.16c-6.26,6.54-13.78,11.24-21.58,15.64A347.26,347.26,0,0,1,349,279.83a.29.29,0,0,0-.43-.38,213.7,213.7,0,0,0-15.27,17.77c2.18-4.46,4.14-9.07,6.34-13.49a.11.11,0,0,0-.19-.1c-3.48,5.41-7.08,11.45-9.13,17.58A230.78,230.78,0,0,0,312.79,329c1.72-6.53,3.52-13,5.6-19.46a.12.12,0,0,0-.22-.07,109.67,109.67,0,0,0-6.6,21.78q-4.8,9.25-8.78,18.92c-.07.18.18.31.26.14,1.28-2.66,2.61-5.29,4-7.9.05,0,.1,0,.15,0,8.21-5.35,16.28-11.73,22.34-19.49C329.53,322.84,329.48,322.79,329.44,322.83Z" style="fill: rgb(255, 255, 255); transform-origin: 325.912px 314.885px;" id="elv5qd8xk3q4l" class="animable"></path><path d="M351.65,290.09c-1.73,1.22-3.36,2.55-5,3.83a35.81,35.81,0,0,0-4.53,3.48.07.07,0,0,0,.07.12,22,22,0,0,0,5.08-3.26,37,37,0,0,0,4.6-4C351.92,290.18,351.77,290,351.65,290.09Z" style="fill: rgb(255, 255, 255); transform-origin: 346.986px 293.796px;" id="elotd488u7taa" class="animable"></path><polygon points="270.58 408.54 314.85 408.54 310.99 363.32 310.12 353.14 275.32 353.14 274.45 363.32 270.58 408.54" style="fill: rgb(199, 199, 199); transform-origin: 292.715px 380.84px;" id="ellztut0tnzo8" class="animable"></polygon><polygon points="274.45 363.32 310.99 363.32 310.12 353.14 275.32 353.14 274.45 363.32" style="fill: rgb(166, 166, 166); transform-origin: 292.72px 358.23px;" id="elcib3xqxjuar" class="animable"></polygon><g id="elcya53o1gu1u"><rect x="272.56" y="350.39" width="40.55" height="8.48" style="fill: rgb(199, 199, 199); transform-origin: 292.835px 354.63px; transform: rotate(180deg);" class="animable"></rect></g></g><g id="freepik--Floor--inject-94" class="animable" style="transform-origin: 250px 408.54px;"><polygon points="63.99 408.54 110.49 408.3 157 408.21 250 408.04 343 408.21 389.51 408.29 436.01 408.54 389.51 408.78 343 408.87 250 409.04 157 408.87 110.49 408.78 63.99 408.54" style="fill: rgb(38, 50, 56); transform-origin: 250px 408.54px;" id="elyealtgaiybe" class="animable"></polygon></g><g id="freepik--Shadow--inject-94" class="animable" style="transform-origin: 174.81px 440.2px;"><ellipse cx="174.81" cy="440.2" rx="107.66" ry="16.39" style="fill: rgb(235, 235, 235); transform-origin: 174.81px 440.2px;" id="el5p0nzs2jlv7" class="animable"></ellipse></g><g id="freepik--chart-3--inject-94" class="animable" style="transform-origin: 371.765px 288.546px;"><rect x="286.64" y="213.35" width="170.24" height="122.96" style="fill: rgb(255, 255, 255); transform-origin: 371.76px 274.83px;" id="el92pu5orl19k" class="animable"></rect><path d="M457.39,336.82H286.14v-124H457.39Zm-170.25-1H456.39v-122H287.14Z" style="fill: rgb(235, 235, 235); transform-origin: 371.765px 274.82px;" id="el4yttztxawap" class="animable"></path><polygon points="295.85 314.19 314.82 313.95 333.81 313.81 371.76 313.69 409.73 313.81 428.7 313.95 447.69 314.19 428.7 314.44 409.73 314.58 371.76 314.69 333.81 314.58 314.82 314.44 295.85 314.19" style="fill: rgb(235, 235, 235); transform-origin: 371.77px 314.19px;" id="elfmnbkqo9fy" class="animable"></polygon><polygon points="295.85 303.69 314.82 303.45 333.81 303.31 371.76 303.19 409.73 303.31 428.7 303.45 447.69 303.69 428.7 303.94 409.73 304.08 371.76 304.19 333.81 304.08 314.82 303.94 295.85 303.69" style="fill: rgb(235, 235, 235); transform-origin: 371.77px 303.69px;" id="elt9q85t3qon" class="animable"></polygon><polygon points="295.85 293.19 314.82 292.95 333.81 292.81 371.76 292.7 409.73 292.81 428.7 292.95 447.69 293.19 428.7 293.44 409.73 293.58 371.76 293.69 333.81 293.58 314.82 293.44 295.85 293.19" style="fill: rgb(235, 235, 235); transform-origin: 371.77px 293.195px;" id="el2nkrn5p56gb" class="animable"></polygon><polygon points="295.85 282.7 314.82 282.45 333.81 282.31 371.76 282.2 409.73 282.31 428.7 282.45 447.69 282.7 428.7 282.94 409.73 283.08 371.76 283.19 333.81 283.08 314.82 282.94 295.85 282.7" style="fill: rgb(235, 235, 235); transform-origin: 371.77px 282.695px;" id="els3lpekq6f6" class="animable"></polygon><polygon points="295.85 272.2 314.82 271.95 333.81 271.81 371.76 271.7 409.73 271.81 428.7 271.95 447.69 272.2 428.7 272.44 409.73 272.58 371.76 272.7 333.81 272.58 314.82 272.44 295.85 272.2" style="fill: rgb(235, 235, 235); transform-origin: 371.77px 272.2px;" id="elqx1ywdb3gic" class="animable"></polygon><polygon points="295.85 261.7 314.82 261.45 333.81 261.31 371.76 261.2 409.73 261.31 428.7 261.45 447.69 261.7 428.7 261.94 409.73 262.08 371.76 262.2 333.81 262.08 314.82 261.94 295.85 261.7" style="fill: rgb(235, 235, 235); transform-origin: 371.77px 261.7px;" id="eltjhc1ud8d6" class="animable"></polygon><polygon points="295.85 251.2 314.82 250.96 333.81 250.81 371.76 250.7 409.73 250.81 428.7 250.95 447.69 251.2 428.7 251.44 409.73 251.58 371.76 251.7 333.81 251.58 314.82 251.44 295.85 251.2" style="fill: rgb(235, 235, 235); transform-origin: 371.77px 251.2px;" id="el3n19wo5apvm" class="animable"></polygon><polygon points="295.85 240.7 314.82 240.46 333.81 240.31 371.76 240.2 409.73 240.31 428.7 240.45 447.69 240.7 428.7 240.94 409.73 241.08 371.76 241.2 333.81 241.08 314.82 240.94 295.85 240.7" style="fill: rgb(235, 235, 235); transform-origin: 371.77px 240.7px;" id="elwcp9wor403" class="animable"></polygon><polygon points="295.85 230.2 314.82 229.96 333.81 229.82 371.76 229.7 409.73 229.81 428.7 229.95 447.69 230.2 428.7 230.44 409.73 230.58 371.76 230.7 333.81 230.58 314.82 230.44 295.85 230.2" style="fill: rgb(235, 235, 235); transform-origin: 371.77px 230.2px;" id="elfpi236daj" class="animable"></polygon><polygon points="302.93 309.95 302.71 308.98 322.41 304.5 341.25 286.01 348.83 291.06 363.87 276.04 372.13 280.98 377.49 276.5 392.48 292.31 412.16 268.65 428.51 286.05 447.48 277.38 447.89 278.29 428.27 287.26 412.2 270.16 392.53 293.82 377.41 277.87 372.23 282.2 364.02 277.3 348.96 292.35 341.37 287.3 322.9 305.41 302.93 309.95" style="fill: rgb(69, 90, 100); transform-origin: 375.3px 289.3px;" id="eltuccbb95o2" class="animable"></polygon><circle cx="322.68" cy="304.78" r="1.99" style="fill: rgb(69, 90, 100); transform-origin: 322.68px 304.78px;" id="elu1s7d157bod" class="animable"></circle><path d="M343.1,286.81a2,2,0,1,1-2-2A2,2,0,0,1,343.1,286.81Z" style="fill: rgb(69, 90, 100); transform-origin: 341.1px 286.81px;" id="eld0wzaknfb3" class="animable"></path><circle cx="364.11" cy="276.82" r="1.99" style="fill: rgb(69, 90, 100); transform-origin: 364.11px 276.82px;" id="elyawgdn2oc5a" class="animable"></circle><path d="M374.18,281.68a2,2,0,1,1-2-2A2,2,0,0,1,374.18,281.68Z" style="fill: rgb(69, 90, 100); transform-origin: 372.18px 281.68px;" id="el0m0qb49ws6u" class="animable"></path><circle cx="377.47" cy="277.34" r="1.99" style="fill: rgb(69, 90, 100); transform-origin: 377.47px 277.34px;" id="elqebxsrf741" class="animable"></circle><circle cx="412" cy="269.41" r="1.99" style="fill: rgb(69, 90, 100); transform-origin: 412px 269.41px;" id="elulbcr52vhnc" class="animable"></circle><circle cx="428.68" cy="286.37" r="1.99" style="fill: rgb(69, 90, 100); transform-origin: 428.68px 286.37px;" id="el86zrmeyqy3" class="animable"></circle><path d="M449.67,278.11a2,2,0,1,1-2-2A2,2,0,0,1,449.67,278.11Z" style="fill: rgb(69, 90, 100); transform-origin: 447.67px 278.11px;" id="el40g73da62vi" class="animable"></path><path d="M394.44,292.91a2,2,0,1,1-2-2A2,2,0,0,1,394.44,292.91Z" style="fill: rgb(69, 90, 100); transform-origin: 392.44px 292.91px;" id="elrtfngbi33x" class="animable"></path><polygon points="303.19 309.67 302.45 308.99 323.45 286.03 331.95 290.51 354.39 267.7 360.59 272.77 371.19 263.65 391.4 278.2 395.87 273.1 407.3 283.64 424.07 268.75 434.82 277.93 447.56 274.5 447.81 275.47 434.57 279.04 424.09 270.07 407.29 284.99 395.95 274.53 391.55 279.54 371.24 264.93 360.61 274.08 354.46 269.05 332.14 291.74 323.66 287.28 303.19 309.67" style="fill: rgb(38, 50, 56); transform-origin: 375.13px 286.66px;" id="elg6qzyu6gtlp" class="animable"></polygon><path d="M325.39,287a2,2,0,1,1-2-2A2,2,0,0,1,325.39,287Z" style="fill: rgb(38, 50, 56); transform-origin: 323.39px 287px;" id="el8qzwcqbw5do" class="animable"></path><circle cx="331.93" cy="291.01" r="1.99" style="fill: rgb(38, 50, 56); transform-origin: 331.93px 291.01px;" id="eloxy6s5of9sd" class="animable"></circle><path d="M356.15,268.51a2,2,0,1,1-2-2A2,2,0,0,1,356.15,268.51Z" style="fill: rgb(38, 50, 56); transform-origin: 354.15px 268.51px;" id="elmeilbnidhr" class="animable"></path><path d="M362.83,273.36a2,2,0,1,1-2-2A2,2,0,0,1,362.83,273.36Z" style="fill: rgb(38, 50, 56); transform-origin: 360.83px 273.36px;" id="el2ks7sxzha7r" class="animable"></path><circle cx="371.23" cy="264.29" r="1.99" style="fill: rgb(38, 50, 56); transform-origin: 371.23px 264.29px;" id="elguzamyg6vea" class="animable"></circle><circle cx="391.35" cy="278.81" r="1.99" style="fill: rgb(38, 50, 56); transform-origin: 391.35px 278.81px;" id="eldh8cakzjx57" class="animable"></circle><path d="M397.66,273.88a2,2,0,1,1-2-2A2,2,0,0,1,397.66,273.88Z" style="fill: rgb(38, 50, 56); transform-origin: 395.66px 273.88px;" id="elta71pt5x3pa" class="animable"></path><circle cx="407.05" cy="284.38" r="1.99" style="fill: rgb(38, 50, 56); transform-origin: 407.05px 284.38px;" id="el07nmupz6w16b" class="animable"></circle><circle cx="424.21" cy="269.9" r="1.99" style="fill: rgb(38, 50, 56); transform-origin: 424.21px 269.9px;" id="elv6mimsu2ycp" class="animable"></circle><path d="M436.78,278.52a2,2,0,1,1-2-2A2,2,0,0,1,436.78,278.52Z" style="fill: rgb(38, 50, 56); transform-origin: 434.78px 278.52px;" id="eldv2v0dozr4l" class="animable"></path><path d="M449.67,274.84a2,2,0,1,1-2-2A2,2,0,0,1,449.67,274.84Z" style="fill: rgb(38, 50, 56); transform-origin: 447.67px 274.84px;" id="el4lwmty7uzse" class="animable"></path><polygon points="303.53 309.32 303.03 308.46 328.55 293.81 342.23 299.98 349.73 297.45 357.62 302.33 373.89 290.37 380.39 295.63 387.29 293.57 398.57 299.95 416.36 291.46 427.63 299.89 447.39 285.68 447.98 286.49 427.61 301.13 416.24 292.62 398.53 301.07 387.17 294.65 380.17 296.74 373.86 291.63 357.67 303.53 349.6 298.55 342.18 301.05 328.6 294.93 303.53 309.32" style="fill: rgb(64, 123, 255); transform-origin: 375.505px 297.5px;" id="ellyvapn1q6z" class="animable"></polygon><path d="M330.56,294.37a2,2,0,1,1-2-2A2,2,0,0,1,330.56,294.37Z" style="fill: rgb(64, 123, 255); transform-origin: 328.56px 294.37px;" id="el0lej6wb1ytu" class="animable"></path><circle cx="342.21" cy="300.44" r="1.99" style="fill: rgb(64, 123, 255); transform-origin: 342.21px 300.44px;" id="elv9n33gcv4gl" class="animable"></circle><circle cx="349.69" cy="298.35" r="1.99" style="fill: rgb(64, 123, 255); transform-origin: 349.69px 298.35px;" id="el3pjryo5nxx3" class="animable"></circle><path d="M359.74,302.79a2,2,0,1,1-2-2A2,2,0,0,1,359.74,302.79Z" style="fill: rgb(64, 123, 255); transform-origin: 357.74px 302.79px;" id="el0431psmjokgh" class="animable"></path><path d="M382.19,295.91a2,2,0,1,1-2-2A2,2,0,0,1,382.19,295.91Z" style="fill: rgb(64, 123, 255); transform-origin: 380.19px 295.91px;" id="elxj9s3hlf62" class="animable"></path><path d="M400.45,300.34a2,2,0,1,1-2-2A2,2,0,0,1,400.45,300.34Z" style="fill: rgb(64, 123, 255); transform-origin: 398.45px 300.34px;" id="ell5wlzse06m" class="animable"></path><path d="M429.9,300.34a2,2,0,1,1-2-2A2,2,0,0,1,429.9,300.34Z" style="fill: rgb(64, 123, 255); transform-origin: 427.9px 300.34px;" id="elxnr54018of" class="animable"></path><circle cx="373.75" cy="290.92" r="1.99" style="fill: rgb(64, 123, 255); transform-origin: 373.75px 290.92px;" id="elpib4lfvgsz8" class="animable"></circle><circle cx="387.37" cy="294.37" r="1.99" style="fill: rgb(64, 123, 255); transform-origin: 387.37px 294.37px;" id="eliao2xwurl6k" class="animable"></circle><circle cx="416.13" cy="291.93" r="1.99" style="fill: rgb(64, 123, 255); transform-origin: 416.13px 291.93px;" id="elrjubt79ovec" class="animable"></circle><path d="M449.67,286.08a2,2,0,1,1-2-2A2,2,0,0,1,449.67,286.08Z" style="fill: rgb(64, 123, 255); transform-origin: 447.67px 286.08px;" id="elybvwhoiaws" class="animable"></path><polygon points="301.16 225.28 301.36 250.06 301.49 274.83 301.63 324.39 301.16 323.93 337.29 323.91 373.43 323.97 409.56 324.12 445.7 324.39 409.56 324.67 373.43 324.82 337.29 324.87 301.16 324.86 300.69 324.86 300.69 324.39 300.83 274.83 300.96 250.06 301.16 225.28" style="fill: rgb(235, 235, 235); transform-origin: 373.195px 275.075px;" id="elbp4bdvyw8og" class="animable"></polygon><path d="M319.13,347.89a16.36,16.36,0,1,1-2.17-8.14A16.37,16.37,0,0,1,319.13,347.89Z" style="fill: rgb(38, 50, 56); transform-origin: 302.77px 347.892px;" id="el2heuvnvzpdo" class="animable"></path><path d="M317,339.75l-14.2,8.14V331.53A16.35,16.35,0,0,1,317,339.75Z" style="fill: rgb(64, 123, 255); transform-origin: 309.9px 339.71px;" id="elncrjm3e8qib" class="animable"></path><g id="elqmibb61rry"><circle cx="302.76" cy="347.89" r="11.32" style="fill: rgb(255, 255, 255); transform-origin: 302.76px 347.89px; transform: rotate(-80.16deg);" class="animable"></circle></g><rect x="298.05" y="345.38" width="9.42" height="1.33" style="fill: rgb(38, 50, 56); transform-origin: 302.76px 346.045px;" id="elywu3s1m2nv" class="animable"></rect><rect x="295.71" y="349.07" width="14.09" height="1.33" style="fill: rgb(166, 166, 166); transform-origin: 302.755px 349.735px;" id="elucmtetj0nsm" class="animable"></rect><path d="M364.92,347.89a15.86,15.86,0,0,1-.18,2.4,16.35,16.35,0,1,1,.18-2.4Z" style="fill: rgb(38, 50, 56); transform-origin: 348.57px 347.871px;" id="el5083dx2ovxc" class="animable"></path><path d="M364.92,347.89a15.86,15.86,0,0,1-.18,2.4l-16.19-2.4V331.53a16.34,16.34,0,0,1,16.37,16.36Z" style="fill: rgb(64, 123, 255); transform-origin: 356.735px 340.91px;" id="elolofw7grm3m" class="animable"></path><g id="el94z7e6045tb"><circle cx="348.55" cy="347.89" r="11.32" style="fill: rgb(255, 255, 255); transform-origin: 348.55px 347.89px; transform: rotate(-22.66deg);" class="animable"></circle></g><rect x="343.84" y="345.38" width="9.42" height="1.33" style="fill: rgb(38, 50, 56); transform-origin: 348.55px 346.045px;" id="elb3yt1ohh2zb" class="animable"></rect><rect x="341.51" y="349.07" width="14.09" height="1.33" style="fill: rgb(166, 166, 166); transform-origin: 348.555px 349.735px;" id="elf0f2mhbqwjn" class="animable"></rect><path d="M411,347.89a16.34,16.34,0,1,1-2.16-8.14A16.36,16.36,0,0,1,411,347.89Z" style="fill: rgb(38, 50, 56); transform-origin: 394.66px 347.869px;" id="elzmy55c0qg" class="animable"></path><path d="M411,347.89a16.36,16.36,0,0,1-10.5,15.28l-5.87-15.28V331.53A16.34,16.34,0,0,1,411,347.89Z" style="fill: rgb(64, 123, 255); transform-origin: 402.815px 347.35px;" id="elxwggpdcx38" class="animable"></path><circle cx="394.66" cy="347.89" r="11.32" style="fill: rgb(255, 255, 255); transform-origin: 394.66px 347.89px;" id="elgs9acw3h029" class="animable"></circle><rect x="389.95" y="345.38" width="9.42" height="1.33" style="fill: rgb(38, 50, 56); transform-origin: 394.66px 346.045px;" id="elwld5te3az47" class="animable"></rect><rect x="387.62" y="349.07" width="14.09" height="1.33" style="fill: rgb(166, 166, 166); transform-origin: 394.665px 349.735px;" id="eldqy3fu06wfj" class="animable"></rect><path d="M456.89,347.89a16.36,16.36,0,1,1-2.17-8.14A16.25,16.25,0,0,1,456.89,347.89Z" style="fill: rgb(38, 50, 56); transform-origin: 440.53px 347.892px;" id="eljbabpi54srg" class="animable"></path><path d="M456.89,347.89a16.36,16.36,0,0,1-27,12.45l10.62-12.45V331.53a16.36,16.36,0,0,1,16.37,16.36Z" style="fill: rgb(64, 123, 255); transform-origin: 443.39px 347.901px;" id="el0bjn3g5pisgo" class="animable"></path><circle cx="440.52" cy="347.89" r="11.32" style="fill: rgb(255, 255, 255); transform-origin: 440.52px 347.89px;" id="ellr4lhva5zuk" class="animable"></circle><rect x="435.81" y="345.38" width="9.42" height="1.33" style="fill: rgb(38, 50, 56); transform-origin: 440.52px 346.045px;" id="elymjy736emss" class="animable"></rect><rect x="433.47" y="349.07" width="14.09" height="1.33" style="fill: rgb(166, 166, 166); transform-origin: 440.515px 349.735px;" id="elpv7pp2n327k" class="animable"></rect></g><g id="freepik--chart-2--inject-94" class="animable" style="transform-origin: 344.91px 140.36px;"><rect x="259.79" y="78.89" width="170.24" height="122.96" style="fill: rgb(255, 255, 255); transform-origin: 344.91px 140.37px;" id="elctklylp43ha" class="animable"></rect><path d="M430.53,202.36H259.29v-124H430.53Zm-170.24-1H429.53v-122H260.29Z" style="fill: rgb(235, 235, 235); transform-origin: 344.91px 140.36px;" id="el24gyo5nzps9" class="animable"></path><rect x="282.46" y="99.29" width="13.23" height="94.14" style="fill: rgb(64, 123, 255); transform-origin: 289.075px 146.36px;" id="elzzxunqu2rub" class="animable"></rect><g id="eluk86g9h218"><rect x="291.77" y="99.29" width="3.92" height="94.14" style="fill: rgb(38, 50, 56); opacity: 0.1; transform-origin: 293.73px 146.36px;" class="animable"></rect></g><rect x="305.2" y="122.08" width="13.23" height="71.35" style="fill: rgb(64, 123, 255); transform-origin: 311.815px 157.755px;" id="elmzh28zwro3i" class="animable"></rect><g id="elc0bhfgc3ll"><rect x="314.51" y="122.08" width="3.92" height="71.35" style="fill: rgb(38, 50, 56); opacity: 0.1; transform-origin: 316.47px 157.755px;" class="animable"></rect></g><rect x="327.94" y="157.75" width="13.23" height="35.68" style="fill: rgb(64, 123, 255); transform-origin: 334.555px 175.59px;" id="elhky2536hiib" class="animable"></rect><g id="elpz9mrqf6cv"><rect x="337.25" y="157.75" width="3.92" height="35.68" style="fill: rgb(38, 50, 56); opacity: 0.1; transform-origin: 339.21px 175.59px;" class="animable"></rect></g><rect x="350.68" y="137.38" width="13.23" height="56.05" style="fill: rgb(64, 123, 255); transform-origin: 357.295px 165.405px;" id="elv20rx3p639l" class="animable"></rect><g id="elqvesmiu1b6p"><rect x="359.98" y="137.38" width="3.92" height="56.05" style="fill: rgb(38, 50, 56); opacity: 0.1; transform-origin: 361.94px 165.405px;" class="animable"></rect></g><rect x="373.41" y="115.98" width="13.23" height="77.45" style="fill: rgb(64, 123, 255); transform-origin: 380.025px 154.705px;" id="elqurtvvpwv3" class="animable"></rect><g id="ellmvednlvf3"><rect x="382.72" y="115.98" width="3.92" height="77.45" style="fill: rgb(38, 50, 56); opacity: 0.1; transform-origin: 384.68px 154.705px;" class="animable"></rect></g><rect x="396.15" y="103.39" width="13.23" height="90.03" style="fill: rgb(64, 123, 255); transform-origin: 402.765px 148.405px;" id="eltdjz2pdrl9" class="animable"></rect><g id="elwsuf0dag2kl"><rect x="405.46" y="103.39" width="3.92" height="90.03" style="fill: rgb(38, 50, 56); opacity: 0.1; transform-origin: 407.42px 148.405px;" class="animable"></rect></g><polygon points="274.79 87.32 275 113.85 275.1 140.38 275.24 193.43 274.79 192.98 293.03 192.94 311.27 192.97 347.74 193.07 384.21 193.17 420.69 193.43 384.21 193.69 347.74 193.79 311.27 193.89 293.03 193.92 274.79 193.88 274.35 193.87 274.35 193.43 274.49 140.38 274.59 113.85 274.79 87.32" style="fill: rgb(235, 235, 235); transform-origin: 347.52px 140.62px;" id="el2qhg5ftttpg" class="animable"></polygon><path d="M271.87,92.64a8.78,8.78,0,0,1,5.84,0,8.78,8.78,0,0,1-5.84,0Z" style="fill: rgb(235, 235, 235); transform-origin: 274.79px 92.64px;" id="elg9j6mv0yjr" class="animable"></path><path d="M271.87,100.71a8.78,8.78,0,0,1,5.84,0,8.78,8.78,0,0,1-5.84,0Z" style="fill: rgb(235, 235, 235); transform-origin: 274.79px 100.71px;" id="eluv40brn6f6" class="animable"></path><path d="M271.87,108.77a8.12,8.12,0,0,1,2.92-.5,7.84,7.84,0,0,1,2.92.5,7.65,7.65,0,0,1-2.92.5A8.12,8.12,0,0,1,271.87,108.77Z" style="fill: rgb(235, 235, 235); transform-origin: 274.79px 108.77px;" id="elkj5epwk8bo" class="animable"></path><path d="M271.87,116.83a8.78,8.78,0,0,1,5.84,0,8.78,8.78,0,0,1-5.84,0Z" style="fill: rgb(235, 235, 235); transform-origin: 274.79px 116.83px;" id="el9kkicud8r2e" class="animable"></path><path d="M271.87,124.9a7.91,7.91,0,0,1,2.92-.5,7.65,7.65,0,0,1,2.92.5,7.84,7.84,0,0,1-2.92.5A8.12,8.12,0,0,1,271.87,124.9Z" style="fill: rgb(235, 235, 235); transform-origin: 274.79px 124.9px;" id="elzl73sxtxq0f" class="animable"></path><path d="M271.87,133a8.78,8.78,0,0,1,5.84,0,8.78,8.78,0,0,1-5.84,0Z" style="fill: rgb(235, 235, 235); transform-origin: 274.79px 133px;" id="el21i3lssr7hg" class="animable"></path><path d="M271.87,141a8.78,8.78,0,0,1,5.84,0,8.78,8.78,0,0,1-5.84,0Z" style="fill: rgb(235, 235, 235); transform-origin: 274.79px 141px;" id="el0oc9zu7kvtdm" class="animable"></path><path d="M271.87,149.09a8.12,8.12,0,0,1,2.92-.5,7.84,7.84,0,0,1,2.92.5,7.65,7.65,0,0,1-2.92.5A7.91,7.91,0,0,1,271.87,149.09Z" style="fill: rgb(235, 235, 235); transform-origin: 274.79px 149.09px;" id="el0uwys0zb6zo" class="animable"></path><path d="M271.87,157.16a8.78,8.78,0,0,1,5.84,0,8.95,8.95,0,0,1-5.84,0Z" style="fill: rgb(235, 235, 235); transform-origin: 274.79px 157.155px;" id="elpc45eis7wq" class="animable"></path><path d="M271.87,165.22a8.12,8.12,0,0,1,2.92-.5,7.65,7.65,0,0,1,2.92.5,7.84,7.84,0,0,1-2.92.5A8.12,8.12,0,0,1,271.87,165.22Z" style="fill: rgb(235, 235, 235); transform-origin: 274.79px 165.22px;" id="elkocyh9e49a" class="animable"></path><path d="M271.87,173.28a8.78,8.78,0,0,1,5.84,0,8.78,8.78,0,0,1-5.84,0Z" style="fill: rgb(235, 235, 235); transform-origin: 274.79px 173.28px;" id="eltvoejxxjivi" class="animable"></path><path d="M271.87,181.35a8.78,8.78,0,0,1,5.84,0,8.78,8.78,0,0,1-5.84,0Z" style="fill: rgb(235, 235, 235); transform-origin: 274.79px 181.35px;" id="elawtzf9vlrkr" class="animable"></path><path d="M334.55,165.72c-12.4,0-18.49-16.11-24.38-31.68-3.26-8.63-6.63-17.55-11-23.48-9.27-12.57-24.12-9.4-24.27-9.37l-.22-1c.16,0,15.63-3.36,25.29,9.75,4.45,6,7.85,15,11.14,23.71,5.77,15.26,11.73,31,23.44,31,8.69,0,17.84-12.4,27.54-25.53,12.14-16.45,25.89-35.09,42.56-35.09v1c-16.16,0-29.76,18.42-41.76,34.68C352.62,153.7,343.74,165.72,334.55,165.72Z" style="fill: rgb(55, 71, 79); transform-origin: 339.665px 132.762px;" id="elwlmzuul6fdn" class="animable"></path><circle cx="274.79" cy="100.71" r="5.65" style="fill: rgb(255, 255, 255); transform-origin: 274.79px 100.71px;" id="eln0nzgpo9r2e" class="animable"></circle><path d="M280.45,100.71a5.93,5.93,0,0,1-5.66,5.9,5.89,5.89,0,0,1-6.15-5.9,6,6,0,0,1,1.85-4.31,6,6,0,0,1,4.3-1.6,5.93,5.93,0,0,1,5.66,5.91Zm0,0a5.41,5.41,0,0,0-5.66-5.41,5.41,5.41,0,1,0,3.95,9.35A5.46,5.46,0,0,0,280.45,100.71Z" style="fill: rgb(55, 71, 79); transform-origin: 274.545px 100.706px;" id="elknt7s5xpp1" class="animable"></path><circle cx="404.65" cy="104.95" r="5.65" style="fill: rgb(255, 255, 255); transform-origin: 404.65px 104.95px;" id="elr3uquez9if" class="animable"></circle><path d="M410.3,105a5.83,5.83,0,0,1-1.6,4,5.9,5.9,0,0,1-4.05,1.86,6,6,0,0,1-4.3-1.6,5.93,5.93,0,0,1,0-8.61,6,6,0,0,1,4.3-1.6A5.91,5.91,0,0,1,410.3,105Zm0,0a5.4,5.4,0,0,0-5.65-5.41,5.41,5.41,0,0,0-3.69,9.1,5.34,5.34,0,0,0,3.69,1.71,5.4,5.4,0,0,0,5.65-5.4Z" style="fill: rgb(55, 71, 79); transform-origin: 404.399px 104.955px;" id="eljajirdwn43" class="animable"></path><path d="M340.21,165.4a5.66,5.66,0,1,1-5.66-5.65A5.66,5.66,0,0,1,340.21,165.4Z" style="fill: rgb(255, 255, 255); transform-origin: 334.55px 165.41px;" id="elgtlhr8sooo" class="animable"></path><path d="M340.21,165.4a5.93,5.93,0,0,1-5.66,5.91,5.91,5.91,0,1,1,0-11.81,5.93,5.93,0,0,1,5.66,5.9Zm0,0a5.41,5.41,0,0,0-5.66-5.4,5.41,5.41,0,0,0,0,10.81,5.41,5.41,0,0,0,5.66-5.41Z" style="fill: rgb(55, 71, 79); transform-origin: 334.303px 165.405px;" id="elv1q0tjs3sll" class="animable"></path></g><g id="freepik--Character--inject-94" class="animable" style="transform-origin: 186.922px 259.104px;"><path d="M200,406.11H157.41s.3-44.26,0-73.54c-.05-4.83,0-9.33,0-13.2,0-6.89.13-11.79-.11-13-.27-1.44-.86-5.87-1.65-12.23-.59-4.7-1.28-10.47-2-16.86-4.19-35.39-10.3-89.91-10.3-89.91h39.89s6.42,50,10.95,85.68c1.93,15.15,3.52,27.71,4.13,32.74C200.27,322.61,200,406.11,200,406.11Z" style="fill: rgb(235, 148, 129); transform-origin: 171.681px 296.74px;" id="elytakpr0cwn" class="animable"></path><path d="M157.36,319.37c0-6.89.13-11.79-.11-13-1.6-8.43-14-119-14-119h34.13Z" style="fill: rgb(38, 50, 56); transform-origin: 160.315px 253.37px;" id="el1cnlk4zsl8f" class="animable"></path><path d="M229.54,439.93c-2.29.76-67.65.57-70.14-1-.94-.59-1.47-10.12-1.78-21.64q-.1-3.73-.16-7.67c-.05-3.09-.09-6.22-.11-9.26-.08-13.65.11-25.67.11-25.67H200l0,25.67v9.26l-.22,7.67s25,11.27,27.53,13.3S231.82,439.18,229.54,439.93Z" style="fill: rgb(235, 148, 129); transform-origin: 193.937px 407.526px;" id="elnc34go84gt" class="animable"></path><path d="M229.54,439.93c-2.29.76-67.65.57-70.14-1-.94-.59-1.47-10.12-1.78-21.64q-.1-3.73-.16-7.67c-.05-3.09-.09-6.22-.11-9.26H200v9.26l-.22,7.67s25,11.27,27.53,13.3S231.82,439.18,229.54,439.93Z" style="fill: rgb(235, 235, 235); transform-origin: 193.946px 420.361px;" id="elcne1ped1535" class="animable"></path><path d="M229.73,440c-1.49.49-29.33.59-49.6.17-4.69-.1-9-.23-12.44-.38-4.77-.22-8-.48-8.49-.81-1.15-.74-1.7-14.72-2-29.47H200l-.22,7.71s25.13,11.33,27.69,13.37S232,439.26,229.73,440Z" style="fill: rgb(64, 123, 255); transform-origin: 193.964px 424.972px;" id="elxikspenif1k" class="animable"></path><path d="M228.8,437.4c-11-.31-55.48-.49-66.39.05-.09,0-.09.07,0,.07,10.91.54,55.37.36,66.39.06C229,437.57,229,437.4,228.8,437.4Z" style="fill: rgb(38, 50, 56); transform-origin: 195.646px 437.485px;" id="el075wd2kpj528" class="animable"></path><path d="M201.35,414.81c-4.34-.83-9.64-.17-13,2.9-.13.12,0,.3.18.26a61.53,61.53,0,0,1,12.76-2.62A.27.27,0,0,0,201.35,414.81Z" style="fill: rgb(38, 50, 56); transform-origin: 194.945px 416.228px;" id="elhcl139xazla" class="animable"></path><path d="M204.47,416.7c-4.33-.82-9.64-.17-13,2.91-.13.12,0,.3.19.26a60.79,60.79,0,0,1,12.75-2.62A.28.28,0,0,0,204.47,416.7Z" style="fill: rgb(38, 50, 56); transform-origin: 198.047px 418.126px;" id="elgzxco3q5lrp" class="animable"></path><path d="M207.6,418.6c-4.34-.83-9.64-.17-13,2.9-.13.12,0,.31.18.26a61.53,61.53,0,0,1,12.76-2.62A.27.27,0,0,0,207.6,418.6Z" style="fill: rgb(38, 50, 56); transform-origin: 201.195px 420.02px;" id="elqsa662907e" class="animable"></path><path d="M210.72,420.49c-4.33-.82-9.64-.17-13,2.91-.13.12,0,.3.18.26A60.89,60.89,0,0,1,210.7,421,.28.28,0,0,0,210.72,420.49Z" style="fill: rgb(38, 50, 56); transform-origin: 204.271px 421.916px;" id="el34fqhnigeuu" class="animable"></path><path d="M209.38,404.8c-1.69-2.35-4.87-1.3-6.68.21a23.17,23.17,0,0,0-6.71,9.92.11.11,0,0,0,.1.15c0,.33.31.68.68.55,3.59-1.32,7.58-2.28,10.65-4.66C209.22,409.59,211,407,209.38,404.8Zm-7.58,7.72c-1.75.69-3.52,1.29-5.24,2,1.31-1.93,2.54-3.9,4-5.7a24.55,24.55,0,0,1,2.31-2.47c1.29-1.17,6.4-3.66,5.63,1.1C208.11,410.11,203.88,411.7,201.8,412.52Z" style="fill: rgb(38, 50, 56); transform-origin: 202.999px 409.539px;" id="el1li6p5oqeez" class="animable"></path><path d="M185,413.76c3.56,1.54,7.67,1.47,11.47,1.85a.54.54,0,0,0,.52-.7.11.11,0,0,0,.06-.17,23.12,23.12,0,0,0-9-7.93c-2.13-1-5.47-1.23-6.52,1.47S182.89,412.87,185,413.76ZM183,410.67c-1.94-4.41,3.63-3.29,5.17-2.48a23,23,0,0,1,2.85,1.83,67.69,67.69,0,0,1,5.34,4.51c-1.85-.3-3.72-.44-5.58-.67C188.59,413.58,184.1,413.1,183,410.67Z" style="fill: rgb(38, 50, 56); transform-origin: 189.173px 410.864px;" id="el7f42sotwa5l" class="animable"></path><path d="M180.13,440.2c-4.69-.1-9-.23-12.44-.38-4.77-.22-8-.48-8.49-.81-1.15-.74-1.7-14.72-2-29.47Z" style="fill: rgb(38, 50, 56); transform-origin: 168.665px 424.87px;" id="elzqcv1w0vuu" class="animable"></path><path d="M183.15,187.31v0c-.27.7-4.42,11.27-20.13,36,0,0-3.18,29-5.69,53.49-.64,6.23-1.23,12.17-1.72,17.25-.72,7.51-1.21,13.16-1.25,15.14-.39,17-8.55,101.34-8.55,101.34l-41.87-1.82s9-87.92,9.54-94.11c.34-4.11,1.73-17.84,3.29-33.51,2.59-25.82,5.67-56.87,5.29-58.61-3.07-14.21,1.56-35.24,1.56-35.24Z" style="fill: rgb(235, 148, 129); transform-origin: 143.545px 298.885px;" id="elmdzkd95bqsk" class="animable"></path><path d="M174.36,444.82c-2.32.66-67.61-2.3-70-4-.92-.63-1-10.17-.86-21.69,0-2.49,0-5.07.16-7.67.23-3.27.5-6.54.8-9.69,1.26-13.68,2.86-25.12,2.86-25.12l41.31,1.75-1.77,24.72-.72,10.14-.54,7.65s24.49,12.32,26.94,14.45S176.67,444.16,174.36,444.82Z" style="fill: rgb(235, 148, 129); transform-origin: 139.453px 410.782px;" id="eljkvh5fe2cyi" class="animable"></path><path d="M174.36,444.82c-2.32.66-67.61-2.3-70-4-.92-.63-1-10.17-.86-21.69,0-2.49,0-5.07.16-7.67.23-3.27.5-6.54.8-9.69,12.73.48,31,1,42.4,1.35l-.72,10.14-.54,7.65s24.49,12.32,26.94,14.45S176.67,444.16,174.36,444.82Z" style="fill: rgb(235, 235, 235); transform-origin: 139.453px 423.342px;" id="elr9nayrvzbp8" class="animable"></path><path d="M174.55,444.92c-2.33.66-70.85-2.26-73.29-4-1.12-.78,1.8-14.82,2.16-29.57l42.72,1.81-.54,7.69s24.63,12.38,27.09,14.53S176.88,444.25,174.55,444.92Z" style="fill: rgb(64, 123, 255); transform-origin: 138.328px 428.183px;" id="el0rst66v01ec" class="animable"></path><path d="M172.54,441.75c-11-.77-55.41-2.83-66.34-2.76-.09,0-.09.07,0,.07,10.88,1,55.31,2.71,66.33,2.87C172.76,441.93,172.77,441.77,172.54,441.75Z" style="fill: rgb(38, 50, 56); transform-origin: 139.42px 440.459px;" id="eldqwrto98qqt" class="animable"></path><path d="M147.26,418.52c-4.3-1-9.62-.58-13.07,2.35-.14.12,0,.3.17.27a60.65,60.65,0,0,1,12.86-2.08A.27.27,0,0,0,147.26,418.52Z" style="fill: rgb(38, 50, 56); transform-origin: 140.821px 419.588px;" id="elnisy4a06pgh" class="animable"></path><path d="M150.3,420.54c-4.29-1-9.62-.58-13.07,2.36-.13.11,0,.3.17.26a61.39,61.39,0,0,1,12.86-2.07A.28.28,0,0,0,150.3,420.54Z" style="fill: rgb(38, 50, 56); transform-origin: 143.844px 421.609px;" id="elxh5fqgm1yb" class="animable"></path><path d="M153.34,422.57c-4.29-1-9.62-.58-13.07,2.35-.13.12,0,.31.17.27a60.86,60.86,0,0,1,12.86-2.08A.27.27,0,0,0,153.34,422.57Z" style="fill: rgb(38, 50, 56); transform-origin: 146.904px 423.639px;" id="elnu3ymdle27" class="animable"></path><path d="M156.38,424.59c-4.29-1-9.62-.58-13.07,2.36-.13.11,0,.3.17.26a61.49,61.49,0,0,1,12.86-2.07A.28.28,0,0,0,156.38,424.59Z" style="fill: rgb(38, 50, 56); transform-origin: 149.924px 425.659px;" id="elvvjp8usdr7p" class="animable"></path><path d="M155.71,408.86c-1.59-2.42-4.81-1.51-6.69-.07a23.17,23.17,0,0,0-7.12,9.62c0,.09,0,.14.1.16,0,.33.28.69.65.57,3.64-1.16,7.67-1.95,10.84-4.2C155.34,413.63,157.22,411.15,155.71,408.86Zm-7.9,7.39c-1.78.62-3.57,1.14-5.32,1.82a69,69,0,0,1,4.28-5.52,24.51,24.51,0,0,1,2.4-2.38c1.35-1.11,6.56-3.38,5.58,1.34C154.21,414.11,149.92,415.52,147.81,416.25Z" style="fill: rgb(38, 50, 56); transform-origin: 149.08px 413.262px;" id="eldc836trzzl" class="animable"></path><path d="M131,416.78c3.5,1.68,7.6,1.79,11.38,2.33a.53.53,0,0,0,.55-.67.12.12,0,0,0,.07-.18,23.09,23.09,0,0,0-8.62-8.29c-2.09-1.11-5.42-1.47-6.59,1.18S128.9,415.8,131,416.78Zm-1.82-3.18c-1.75-4.49,3.77-3.12,5.28-2.25a25,25,0,0,1,2.77,1.94,69.85,69.85,0,0,1,5.14,4.74c-1.84-.38-3.7-.6-5.55-.91C134.56,416.75,130.1,416.08,129.13,413.6Z" style="fill: rgb(38, 50, 56); transform-origin: 135.245px 414.122px;" id="elk5q7um9e2v" class="animable"></path><path d="M194.1,273l-36.78,3.84-3.76.39c-14,1.48-27.41,2.89-36.8,3.9,2.59-25.82,5.67-56.87,5.29-58.61-3.07-14.21,1.56-35.24,1.56-35.24h59.54v0h0S189.57,237.37,194.1,273Z" style="fill: rgb(38, 50, 56); transform-origin: 155.43px 234.205px;" id="elvk5sw9vj6cg" class="animable"></path><path d="M178.37,116.26c.77,11.76,1.37,23.88.33,35.64-.8,9.16-4.57,16.73-14.06,19.08-8.8,2.17-21.36,2.14-28.89-3.62-3.5-2.7-4.75-6.53-4.57-10.85.26-6,4.67-38.87,6-49.12.79-6.25,1.56-12.58,3.45-18.62,4-12.69,10.23-12.65,11.09-12.91.75-.49,5.53-2.68,12.38-.58a13.36,13.36,0,0,1,8.19,7.14C177.29,92.52,177.63,105.24,178.37,116.26Z" style="fill: rgb(38, 50, 56); transform-origin: 155.21px 123.346px;" id="elg9ezqrs0scr" class="animable"></path><path d="M149.77,77.63c-7.49,3.59-9.19,11.83-10.94,19.21-2.43,10.27-4.68,20.59-6.43,31-.84,5-1.57,10-2.15,15.08-.56,4.83-1.45,10-1.07,14.85.62,8.05,8,11.64,15.18,12.71a.27.27,0,0,0,.1-.54c-4.08-.76-8.24-1.85-11.3-4.84-3.92-3.82-3.52-8.88-3.11-13.91.69-8.57,1.86-17.09,3.35-25.55s3.27-16.9,5.19-25.28c1.82-8,3.1-18.48,11.23-22.62C149.89,77.72,149.85,77.59,149.77,77.63Z" style="fill: rgb(38, 50, 56); transform-origin: 139.472px 124.053px;" id="elg7c6uvi71qr" class="animable"></path><path d="M175.82,91c-1.49-6.14-4.75-12.11-11.25-13.83,0,0,0,0,0,0,8.4,2.58,10.54,11.71,11.73,19.35q1.89,12,2.88,24.22c.64,7.79,1.12,15.65,1,23.48-.07,8.45-1.52,16.37-6.44,23.38a.14.14,0,0,0,.22.18c4.85-5.68,6.4-13.45,6.71-20.72a218.41,218.41,0,0,0-1.15-28.81C178.77,109.21,178,99.83,175.82,91Z" style="fill: rgb(38, 50, 56); transform-origin: 172.657px 122.501px;" id="eljl6kvqm4xel" class="animable"></path><path d="M166.15,134.1c7.26,10,36.79,31.31,49,29.27,8-1.33,33.14-18.64,38.45-24.11,6.23-6.4-6.78-23.18-11.62-21.12-6,2.57-26,18-31.67,20-3.22,1.17-22.69-9.15-41.82-16.73C161.08,118.52,161.82,128.14,166.15,134.1Z" style="fill: rgb(235, 148, 129); transform-origin: 209.076px 140.736px;" id="el87w032mera8" class="animable"></path><path d="M244,113.2c4-1.4,8.4-3.32,12.81-3.24s8.06,5.9,8.06,7.56-1.66,12.06-6.07,12.06-1.74-8-1.91-8.9-.33-2.08-1.16-2-15.38,7-15.38,7Z" style="fill: rgb(235, 148, 129); transform-origin: 252.61px 119.769px;" id="el8hmhg5b1w5w" class="animable"></path><path d="M244.32,113.81c.25,0,12.05-4.65,16.46-4.57s8.07,5.9,8.07,7.56-1.67,12.06-6.07,12.06-1.75-8-1.92-8.9-.33-2.08-1.16-2-15.38,7-15.38,7Z" style="fill: rgb(235, 148, 129); transform-origin: 256.585px 119.049px;" id="elrw6c6pf9vzi" class="animable"></path><path d="M261.28,128.3a5.19,5.19,0,0,1-.73-2.6,8.92,8.92,0,0,1,.16-2.82,15.61,15.61,0,0,0,.53-2.42,4.88,4.88,0,0,0-.61-2.33c-.34-.62-1-.41-1.55-.21a24.31,24.31,0,0,0-2.39,1.08c-.84.42-1.68.86-2.51,1.29a22.67,22.67,0,0,0-2.56,1.4c-.06,0,0,.15,0,.12a21.26,21.26,0,0,0,2.24-1l2.52-1.16c.79-.35,1.56-.74,2.35-1.08.29-.12.85-.42,1.17-.34s.5.9.57,1.17a4.12,4.12,0,0,1-.15,2.38,13.15,13.15,0,0,0-.46,2.41,6.36,6.36,0,0,0,.19,2.3,8.75,8.75,0,0,0,1,1.89C261.2,128.47,261.34,128.38,261.28,128.3Z" style="fill: rgb(38, 50, 56); transform-origin: 256.444px 123.068px;" id="el9wl36w3kzw4" class="animable"></path><path d="M230.34,125.38S242.55,114.25,245.1,112c5.1-4.44,26.57-13.21,29.56-13.53s4.08,5.82-10.5,12.2c-7.68,3.36-9.05,7.76-8.9,10.2s2.47,7,6.57,6.87,6.77-6.1,10.53-6.76,1.28,6.24-1.38,10.23a25.12,25.12,0,0,1-11,8.61c-3.55,1.33-14.53,6.06-14.53,6.06Z" style="fill: rgb(235, 148, 129); transform-origin: 253.425px 122.169px;" id="elrtypurl3jb7" class="animable"></path><path d="M266.92,124.89c-1.54,1.2-3.29,2.75-5.32,2.83s-3.47-1.29-4.44-3a7.74,7.74,0,0,1-1.08-5.67,9.5,9.5,0,0,1,2.81-4.6,22.84,22.84,0,0,1,5.56-3.7c.08,0,0-.17-.09-.13-1.88.84-7.75,3.24-8.93,8.43a8,8,0,0,0,1.14,5.78c.91,1.63,2.24,3.2,4.22,3.37,2.43.19,4.51-1.78,6.25-3.25C267.12,124.89,267,124.83,266.92,124.89Z" style="fill: rgb(38, 50, 56); transform-origin: 261.182px 119.413px;" id="eld7m0jtayzf7" class="animable"></path><path d="M196.88,131.88s-3.53,6.75-6.73,12.89c-2.51,4.86-4.83,9.34-5,9.83a161.16,161.16,0,0,1-19.8-18.84c-8.14-9.34-6-15.62-.37-15.66a9.67,9.67,0,0,1,2.56.36C175,122.47,196.88,131.88,196.88,131.88Z" style="fill: rgb(64, 123, 255); transform-origin: 178.43px 137.35px;" id="ele4e9hv4c726" class="animable"></path><circle cx="166.46" cy="124.38" r="0.59" style="fill: rgb(255, 255, 255); transform-origin: 166.46px 124.38px;" id="elielz2csm78m" class="animable"></circle><circle cx="176.68" cy="124.38" r="0.59" style="fill: rgb(255, 255, 255); transform-origin: 176.68px 124.38px;" id="eldocun2yoi06" class="animable"></circle><circle cx="176.68" cy="141.88" r="0.59" style="fill: rgb(255, 255, 255); transform-origin: 176.68px 141.88px;" id="elx0tz52weg9p" class="animable"></circle><circle cx="186.9" cy="141.88" r="0.59" style="fill: rgb(255, 255, 255); transform-origin: 186.9px 141.88px;" id="elz8hmav79g3a" class="animable"></circle><circle cx="171.57" cy="133.53" r="0.59" style="fill: rgb(255, 255, 255); transform-origin: 171.57px 133.53px;" id="el89qtew2y5ro" class="animable"></circle><circle cx="181.79" cy="133.53" r="0.59" style="fill: rgb(255, 255, 255); transform-origin: 181.79px 133.53px;" id="eliv5k6y2ual" class="animable"></circle><circle cx="192.01" cy="133.53" r="0.59" style="fill: rgb(255, 255, 255); transform-origin: 192.01px 133.53px;" id="eln5tzcvkrijt" class="animable"></circle><circle cx="181.79" cy="151.03" r="0.59" style="fill: rgb(255, 255, 255); transform-origin: 181.79px 151.03px;" id="el4n51i5b4nm" class="animable"></circle><path d="M190.15,144.77c-2.51,4.86-4.83,9.34-5,9.83a161.16,161.16,0,0,1-19.8-18.84c-8.14-9.34-6-15.62-.37-15.66Z" style="fill: rgb(38, 50, 56); transform-origin: 175.065px 137.35px;" id="elgpjowdr1m0l" class="animable"></path><path d="M198.21,267.45H109.64s2.13-16.1,5.58-37.49l.18-1.17c1.43-8.85,3.08-18.56,4.89-28.37,3.19-17.35,6.89-35,10.76-48.92.07-.23.13-.46.19-.69h0c1.32-4.67,2.66-8.89,4-12.51,4.35-11.71,12.94-18.95,19.1-19.85h0c4.11-.6,9.83-.06,14.09,3.91a39.2,39.2,0,0,1,4.11,4.86c3.84,5.13,8.42,12.58,10,17.69.1.33.18.63.25.93a8.79,8.79,0,0,1,.32,2.06,53.09,53.09,0,0,1-1.88,13.47L186.46,194l.15.91,11.09,69.38Z" style="fill: rgb(64, 123, 255); transform-origin: 153.925px 192.847px;" id="el3yhzxvvub8e" class="animable"></path><path d="M146.62,124.38a.6.6,0,0,1-1.19,0,.6.6,0,0,1,1.19,0Zm9.62-.59a.59.59,0,0,0-.59.59.6.6,0,1,0,.59-.59Zm10.22,0a.59.59,0,0,0-.59.59.6.6,0,0,0,.59.59.59.59,0,0,0,.59-.59A.58.58,0,0,0,166.46,123.79Zm-30.65,17.5a.59.59,0,1,0,.59.59A.59.59,0,0,0,135.81,141.29Zm10.21,0a.59.59,0,1,0,.6.59A.59.59,0,0,0,146,141.29Zm10.22,0a.59.59,0,1,0,.6.59A.59.59,0,0,0,156.24,141.29Zm10.22,0a.59.59,0,0,0,0,1.18.59.59,0,0,0,0-1.18Zm10.22,0a.59.59,0,1,0,.59.59A.58.58,0,0,0,176.68,141.29Zm-35.76-8.36a.6.6,0,1,0,.59.6A.6.6,0,0,0,140.92,132.93Zm10.21,0a.6.6,0,1,0,.6.6A.6.6,0,0,0,151.13,132.93Zm10.22,0a.6.6,0,0,0,0,1.19.6.6,0,0,0,0-1.19Zm10.22,0a.6.6,0,1,0,.59.6A.59.59,0,0,0,171.57,132.93Zm-35.76,25.86a.59.59,0,1,0,.59.59A.59.59,0,0,0,135.81,158.79Zm10.21,0a.59.59,0,1,0,.6.59A.59.59,0,0,0,146,158.79Zm10.22,0a.59.59,0,1,0,.6.59A.59.59,0,0,0,156.24,158.79Zm10.22,0a.59.59,0,0,0,0,1.18.59.59,0,0,0,0-1.18Zm10.22,0a.59.59,0,1,0,.59.59A.58.58,0,0,0,176.68,158.79Zm-45.44-8c-.06.23-.12.46-.19.69a.61.61,0,0,0,.24-.47A.54.54,0,0,0,131.24,150.81Zm9.68-.38a.6.6,0,1,0,.59.6A.6.6,0,0,0,140.92,150.43Zm10.21,0a.6.6,0,1,0,.6.6A.6.6,0,0,0,151.13,150.43Zm10.22,0a.6.6,0,0,0,0,1.19.6.6,0,0,0,0-1.19Zm10.22,0a.6.6,0,1,0,.59.6A.59.59,0,0,0,171.57,150.43Zm10.22,0a.6.6,0,1,0,.59.6A.59.59,0,0,0,181.79,150.43Zm-56.2,25.86a.59.59,0,0,0,0,1.18.59.59,0,0,0,0-1.18Zm10.22,0a.59.59,0,1,0,.59.59A.59.59,0,0,0,135.81,176.29Zm10.21,0a.59.59,0,1,0,.6.59A.59.59,0,0,0,146,176.29Zm10.22,0a.59.59,0,1,0,.6.59A.59.59,0,0,0,156.24,176.29Zm10.22,0a.59.59,0,0,0,0,1.18.59.59,0,0,0,0-1.18Zm10.22,0a.59.59,0,1,0,.59.59A.58.58,0,0,0,176.68,176.29Zm-46-8.35a.59.59,0,0,0-.6.59.6.6,0,0,0,1.19,0A.59.59,0,0,0,130.7,167.94Zm10.22,0a.59.59,0,0,0-.6.59.6.6,0,0,0,1.19,0A.59.59,0,0,0,140.92,167.94Zm10.21,0a.59.59,0,0,0-.59.59.6.6,0,1,0,.59-.59Zm10.22,0a.59.59,0,0,0-.59.59.6.6,0,0,0,.59.59.59.59,0,0,0,.59-.59A.58.58,0,0,0,161.35,167.94Zm10.22,0a.58.58,0,0,0-.59.59.59.59,0,0,0,1.18,0A.58.58,0,0,0,171.57,167.94Zm10.22,0a.58.58,0,0,0-.59.59.59.59,0,0,0,1.18,0A.58.58,0,0,0,181.79,167.94Zm-56.2,25.85a.59.59,0,0,0-.59.59.58.58,0,0,0,.59.59.59.59,0,0,0,.59-.59A.6.6,0,0,0,125.59,193.79Zm10.22,0a.6.6,0,0,0-.6.59.6.6,0,1,0,.6-.59Zm10.21,0a.6.6,0,0,0-.59.59.6.6,0,0,0,1.19,0A.6.6,0,0,0,146,193.79Zm10.22,0a.6.6,0,0,0-.59.59.6.6,0,0,0,1.19,0A.6.6,0,0,0,156.24,193.79Zm10.22,0a.6.6,0,0,0-.59.59.59.59,0,0,0,.59.59.58.58,0,0,0,.59-.59A.59.59,0,0,0,166.46,193.79Zm10.22,0a.59.59,0,0,0-.59.59.59.59,0,0,0,1.18,0A.59.59,0,0,0,176.68,193.79Zm9.78.19a.64.64,0,0,0-.15.4.58.58,0,0,0,.3.51Zm-55.76-8.54a.59.59,0,1,0,.59.59A.59.59,0,0,0,130.7,185.44Zm10.22,0a.59.59,0,1,0,.59.59A.59.59,0,0,0,140.92,185.44Zm10.21,0a.59.59,0,1,0,.6.59A.59.59,0,0,0,151.13,185.44Zm10.22,0a.59.59,0,0,0,0,1.18.59.59,0,0,0,0-1.18Zm10.22,0a.59.59,0,1,0,.59.59A.58.58,0,0,0,171.57,185.44Zm10.22,0a.59.59,0,1,0,.59.59A.58.58,0,0,0,181.79,185.44Zm-56.2,25.85a.6.6,0,0,0,0,1.19.6.6,0,0,0,0-1.19Zm10.22,0a.6.6,0,1,0,.59.59A.6.6,0,0,0,135.81,211.29Zm10.21,0a.6.6,0,1,0,.6.59A.6.6,0,0,0,146,211.29Zm10.22,0a.6.6,0,1,0,.6.59A.6.6,0,0,0,156.24,211.29Zm10.22,0a.6.6,0,1,0,.59.59A.59.59,0,0,0,166.46,211.29Zm10.22,0a.6.6,0,1,0,.59.59A.59.59,0,0,0,176.68,211.29Zm10.22,0a.6.6,0,1,0,.59.59A.59.59,0,0,0,186.9,211.29Zm-66.42-8.35a.59.59,0,1,0,0,1.18.59.59,0,0,0,0-1.18Zm10.22,0a.59.59,0,1,0,.59.59A.59.59,0,0,0,130.7,202.94Zm10.22,0a.59.59,0,1,0,.59.59A.59.59,0,0,0,140.92,202.94Zm10.21,0a.59.59,0,1,0,.6.59A.59.59,0,0,0,151.13,202.94Zm10.22,0a.59.59,0,0,0,0,1.18.59.59,0,0,0,0-1.18Zm10.22,0a.59.59,0,1,0,.59.59A.58.58,0,0,0,171.57,202.94Zm10.22,0a.59.59,0,1,0,.59.59A.58.58,0,0,0,181.79,202.94ZM115.4,228.79l-.18,1.17.15,0a.6.6,0,0,0,0-1.19Zm10.19,0a.6.6,0,0,0,0,1.19.6.6,0,0,0,0-1.19Zm10.22,0a.6.6,0,1,0,.59.59A.6.6,0,0,0,135.81,228.79Zm10.21,0a.6.6,0,1,0,.6.59A.6.6,0,0,0,146,228.79Zm10.22,0a.6.6,0,1,0,.6.59A.6.6,0,0,0,156.24,228.79Zm10.22,0a.6.6,0,1,0,.59.59A.59.59,0,0,0,166.46,228.79Zm10.22,0a.6.6,0,1,0,.59.59A.59.59,0,0,0,176.68,228.79Zm10.22,0a.6.6,0,1,0,.59.59A.59.59,0,0,0,186.9,228.79Zm-66.42-8.35a.59.59,0,1,0,0,1.18.59.59,0,0,0,0-1.18Zm10.22,0a.59.59,0,1,0,.59.59A.59.59,0,0,0,130.7,220.44Zm10.22,0a.59.59,0,1,0,.59.59A.59.59,0,0,0,140.92,220.44Zm10.21,0a.59.59,0,1,0,.6.59A.59.59,0,0,0,151.13,220.44Zm10.22,0a.59.59,0,0,0,0,1.18.59.59,0,0,0,0-1.18Zm10.22,0a.59.59,0,1,0,.59.59A.58.58,0,0,0,171.57,220.44Zm10.22,0a.59.59,0,1,0,.59.59A.58.58,0,0,0,181.79,220.44Zm-66.42,25.85a.6.6,0,1,0,.59.6A.59.59,0,0,0,115.37,246.29Zm10.22,0a.6.6,0,1,0,.59.6A.6.6,0,0,0,125.59,246.29Zm10.22,0a.6.6,0,1,0,.59.6A.6.6,0,0,0,135.81,246.29Zm10.21,0a.6.6,0,1,0,.6.6A.6.6,0,0,0,146,246.29Zm10.22,0a.6.6,0,1,0,.6.6A.6.6,0,0,0,156.24,246.29Zm10.22,0a.6.6,0,0,0,0,1.19.6.6,0,0,0,0-1.19Zm10.22,0a.6.6,0,1,0,.59.6A.59.59,0,0,0,176.68,246.29Zm10.22,0a.6.6,0,1,0,.59.6A.59.59,0,0,0,186.9,246.29Zm10.22,0a.6.6,0,1,0,.59.6A.59.59,0,0,0,197.12,246.29Zm-76.64-8.35a.59.59,0,1,0,0,1.18.59.59,0,0,0,0-1.18Zm10.22,0a.59.59,0,1,0,.59.59A.59.59,0,0,0,130.7,237.94Zm10.22,0a.59.59,0,1,0,.59.59A.59.59,0,0,0,140.92,237.94Zm10.21,0a.59.59,0,1,0,.6.59A.59.59,0,0,0,151.13,237.94Zm10.22,0a.59.59,0,0,0,0,1.18.59.59,0,0,0,0-1.18Zm10.22,0a.59.59,0,1,0,.59.59A.58.58,0,0,0,171.57,237.94Zm10.22,0a.59.59,0,1,0,.59.59A.58.58,0,0,0,181.79,237.94Zm10.22,0a.59.59,0,1,0,.59.59A.58.58,0,0,0,192,237.94ZM115.37,263.8a.58.58,0,0,0-.59.59.59.59,0,0,0,1.18,0A.58.58,0,0,0,115.37,263.8Zm10.22,0a.58.58,0,0,0-.59.59.59.59,0,0,0,.59.59.6.6,0,0,0,.59-.59A.59.59,0,0,0,125.59,263.8Zm10.22,0a.59.59,0,0,0-.6.59.6.6,0,0,0,1.19,0A.59.59,0,0,0,135.81,263.8Zm10.21,0a.59.59,0,0,0-.59.59.6.6,0,1,0,.59-.59Zm10.22,0a.59.59,0,0,0-.59.59.6.6,0,1,0,.59-.59Zm10.22,0a.59.59,0,0,0-.59.59.6.6,0,0,0,.59.59.59.59,0,0,0,.59-.59A.58.58,0,0,0,166.46,263.8Zm10.22,0a.58.58,0,0,0-.59.59.59.59,0,1,0,1.18,0A.58.58,0,0,0,176.68,263.8Zm10.22,0a.58.58,0,0,0-.59.59.59.59,0,1,0,1.18,0A.58.58,0,0,0,186.9,263.8Zm10.22,0a.58.58,0,0,0-.59.59.59.59,0,1,0,1.18,0A.58.58,0,0,0,197.12,263.8Zm-76.64-8.36a.59.59,0,0,0-.59.59.58.58,0,0,0,.59.59.59.59,0,0,0,.59-.59A.6.6,0,0,0,120.48,255.44Zm10.22,0a.6.6,0,0,0-.6.59.6.6,0,1,0,.6-.59Zm10.22,0a.6.6,0,0,0-.6.59.6.6,0,1,0,.6-.59Zm10.21,0a.6.6,0,0,0-.59.59.6.6,0,0,0,1.19,0A.6.6,0,0,0,151.13,255.44Zm10.22,0a.6.6,0,0,0-.59.59.59.59,0,0,0,.59.59.58.58,0,0,0,.59-.59A.59.59,0,0,0,161.35,255.44Zm10.22,0a.59.59,0,0,0-.59.59.59.59,0,1,0,1.18,0A.59.59,0,0,0,171.57,255.44Zm10.22,0a.59.59,0,0,0-.59.59.59.59,0,1,0,1.18,0A.59.59,0,0,0,181.79,255.44Zm10.22,0a.59.59,0,0,0-.59.59.59.59,0,1,0,1.18,0A.59.59,0,0,0,192,255.44Z" style="fill: rgb(255, 255, 255); transform-origin: 156.235px 194.395px;" id="elimbbld8xgt" class="animable"></path><path d="M154.36,118.44l-34.07,82c4.33-23.52,9.58-47.66,15-62.13,4.35-11.71,12.94-18.95,19.1-19.85Z" style="fill: rgb(38, 50, 56); transform-origin: 137.34px 159.44px;" id="elzajm2zlf0rq" class="animable"></path><path d="M136.32,127.83c-15.37,13-44.73,44.68-38,58.2,5.65,11.4,17.78.11,48.79,8.07,3.57.92,12.86-24.21,9.27-25.84-7.39-3.35-26.25-3.43-26.25-3.43-1.09-.53,9.45-16.32,19.54-34.3C156.82,117.73,149.1,117.06,136.32,127.83Z" style="fill: rgb(235, 148, 129); transform-origin: 127.262px 157.21px;" id="el25oo830j8j" class="animable"></path><path d="M152.35,166.94s10.42-2.39,15.64-5c6.54-3.23,8.47.83,5.88,3.62a30.62,30.62,0,0,1-9.25,6.29Z" style="fill: rgb(235, 148, 129); transform-origin: 163.665px 166.299px;" id="el5o84j54y5fe" class="animable"></path><path d="M150.45,166.65c2.36.33,15.72,2.29,20.71,4.83,4.2,2.14,13,8.69,12.23,11.79s-4.13,1.9-4.13,1.9,4.29,2.84,3.19,5.89-6.2,1-6.2,1,4.18,3.24,2.87,6.2-6-.53-6-.53,3.71,4.43,1.29,6.39-11.57-4.73-12.5-5.22-10.09-3.19-14-4.58L141,192.46Z" style="fill: rgb(235, 148, 129); transform-origin: 162.219px 185.564px;" id="el11kaozvr4qy" class="animable"></path><path d="M173,197.73c-4.34-5-7.1-6.41-13.34-8.27-.12,0-.09-.23,0-.2,6.27,1.27,10,2.56,13.56,8.27C173.44,197.81,173.22,198,173,197.73Z" style="fill: rgb(38, 50, 56); transform-origin: 166.446px 193.559px;" id="el3odf1ootq2b" class="animable"></path><path d="M176.36,192.11c-5-4.77-8-6.35-14.34-8.78-.09,0,0-.19.06-.16,6.46,1.86,10.15,3.23,14.48,8.66C176.76,192.07,176.58,192.33,176.36,192.11Z" style="fill: rgb(38, 50, 56); transform-origin: 169.314px 187.68px;" id="el6w8ihmntl36" class="animable"></path><path d="M179.14,185c-5.14-4.28-8.33-6.15-14.84-7.71a.12.12,0,0,1,0-.24c6.78.95,10.79,3.25,14.91,7.78C179.54,185.17,179.47,185.3,179.14,185Z" style="fill: rgb(38, 50, 56); transform-origin: 171.803px 181.109px;" id="el1m9iknuir1m" class="animable"></path><path d="M169.37,170.88a81.87,81.87,0,0,0-17.26-3.83c-.16,0,.08-.12.24-.11a40.5,40.5,0,0,1,17.2,3.84C169.93,171,169.77,171,169.37,170.88Z" style="fill: rgb(38, 50, 56); transform-origin: 160.912px 168.95px;" id="elk53hdvdmak" class="animable"></path><path d="M151.57,127.05c-2.56,6.85-15.39,28.88-15.39,28.88l-14.81-6.61-.26-.11L111.67,145s23.06-18.57,33.21-23.73S154.46,119.34,151.57,127.05Z" style="fill: rgb(64, 123, 255); transform-origin: 132.535px 137.346px;" id="elkj1ew11z78s" class="animable"></path><circle cx="146.02" cy="124.38" r="0.59" style="fill: rgb(255, 255, 255); transform-origin: 146.02px 124.38px;" id="elomn8iskpu4" class="animable"></circle><circle cx="125.59" cy="141.88" r="0.59" style="fill: rgb(255, 255, 255); transform-origin: 125.59px 141.88px;" id="elal6bm4a2wq" class="animable"></circle><circle cx="135.81" cy="141.88" r="0.59" style="fill: rgb(255, 255, 255); transform-origin: 135.81px 141.88px;" id="elmehoh1ohb3" class="animable"></circle><circle cx="130.7" cy="133.53" r="0.59" style="fill: rgb(255, 255, 255); transform-origin: 130.7px 133.53px;" id="elcz4um6yuh35" class="animable"></circle><circle cx="140.92" cy="133.53" r="0.59" style="fill: rgb(255, 255, 255); transform-origin: 140.92px 133.53px;" id="elrlgay94pra" class="animable"></circle><circle cx="130.7" cy="151.03" r="0.59" style="fill: rgb(255, 255, 255); transform-origin: 130.7px 151.03px;" id="ela8u99idzcnk" class="animable"></circle><path d="M148.72,120.67c-.2-.46,13.2,16,18.16,15.34,3.82-.48,1.1-14.72,0-15.26C159.38,117.11,154.79,116.54,148.72,120.67Z" style="fill: rgb(235, 148, 129); transform-origin: 158.784px 126.91px;" id="elav4p30unszj" class="animable"></path><path d="M153.29,120.36c.39,1,6.3,7,11,6.12,1.54-.3.29-8.73.29-8.73l0-.65.7-9L154.13,103l-1.61-.66s0,2.48,0,5.56v.44c0,.18,0,.34,0,.51,0,.46,0,.93,0,1.4s0,.7,0,1.08l0,1.11A58.47,58.47,0,0,0,153.29,120.36Z" style="fill: rgb(235, 148, 129); transform-origin: 158.9px 114.454px;" id="elbvmqjdwuzoc" class="animable"></path><path d="M152.49,107.89a18.09,18.09,0,0,0,12.14,9.21l.7-9L154.13,103l-1.61-.66S152.49,104.81,152.49,107.89Z" style="fill: rgb(38, 50, 56); transform-origin: 158.91px 109.72px;" id="elig6wyiz09e8" class="animable"></path><path d="M175.21,92.44c3.67,15.43-5.16,19.37-8.49,20.15-3,.72-13.39,2.77-18.64-12.19s.77-21.55,7.59-23.55S171.54,77,175.21,92.44Z" style="fill: rgb(235, 148, 129); transform-origin: 161.086px 94.6631px;" id="eluf8rlx9q5ym" class="animable"></path><path d="M171.8,90.77a9.94,9.94,0,0,1-1.09,0,1.78,1.78,0,0,1-1.11-.26.56.56,0,0,1-.11-.68,1.39,1.39,0,0,1,1.31-.55,2.08,2.08,0,0,1,1.39.51A.6.6,0,0,1,171.8,90.77Z" style="fill: rgb(38, 50, 56); transform-origin: 170.875px 90.0258px;" id="elwssmamsxv1" class="animable"></path><path d="M161,92.89a9.79,9.79,0,0,0,1-.4,1.76,1.76,0,0,0,1-.6.55.55,0,0,0-.11-.68,1.39,1.39,0,0,0-1.41-.1,2.06,2.06,0,0,0-1.16.93A.6.6,0,0,0,161,92.89Z" style="fill: rgb(38, 50, 56); transform-origin: 161.664px 91.9356px;" id="el1emmlzc7oq2" class="animable"></path><path d="M163.77,96.49s-.08.07-.07.11c.24,1.06.33,2.3-.57,2.84,0,0,0,.07,0,0C164.29,99.11,164.16,97.45,163.77,96.49Z" style="fill: rgb(38, 50, 56); transform-origin: 163.589px 97.9806px;" id="eldiyrk8faywf" class="animable"></path><path d="M162.61,95.56c-1.73.2-1.22,3.64.38,3.47S164.06,95.4,162.61,95.56Z" style="fill: rgb(38, 50, 56); transform-origin: 162.749px 97.2954px;" id="elr5b8fiz2dld" class="animable"></path><path d="M162,95.85c-.27.24-.52.63-.87.71s-.79-.2-1.12-.51c0,0-.06,0-.05,0,.09.66.44,1.3,1.17,1.29s1-.66,1.1-1.35C162.2,95.92,162.07,95.75,162,95.85Z" style="fill: rgb(38, 50, 56); transform-origin: 161.094px 96.5797px;" id="elsg1ohxb2l2r" class="animable"></path><path d="M170.38,95s.09,0,.1.08c.12,1.08.43,2.29,1.45,2.5,0,0,0,.06,0,.06C170.72,97.66,170.32,96,170.38,95Z" style="fill: rgb(38, 50, 56); transform-origin: 171.152px 96.3201px;" id="elihlj7w5ckr" class="animable"></path><path d="M171.18,93.76c1.7-.38,2.32,3,.75,3.4S169.75,94.07,171.18,93.76Z" style="fill: rgb(38, 50, 56); transform-origin: 171.604px 95.4611px;" id="elq38bwfap9ar" class="animable"></path><path d="M171.94,93.85c.3.14.63.42,1,.38s.59-.46.76-.86c0,0,.05,0,.06,0,.14.66,0,1.38-.56,1.62s-1.08-.27-1.35-.89C171.75,94,171.81,93.8,171.94,93.85Z" style="fill: rgb(38, 50, 56); transform-origin: 172.805px 94.2103px;" id="elxqvs64lfibq" class="animable"></path><path d="M165.51,104.61c.29.22.58.54,1,.53a2.86,2.86,0,0,0,1.13-.38,0,0,0,0,1,0,0,1.45,1.45,0,0,1-1.3.72,1.17,1.17,0,0,1-1-.86A.06.06,0,0,1,165.51,104.61Z" style="fill: rgb(38, 50, 56); transform-origin: 166.49px 105.006px;" id="el5377ktikkwf" class="animable"></path><path d="M169.35,100s.47,1.55.6,2.3c0,.07-.17.14-.42.19h0a3.6,3.6,0,0,1-3.68-.78c-.07-.06,0-.15.09-.12a5.43,5.43,0,0,0,3.41.41c0-.22-.9-2.64-.79-2.67a6.84,6.84,0,0,1,1.77.11c-.9-3.27-2.31-6.37-3.16-9.64a.1.1,0,0,1,.19-.08A55.83,55.83,0,0,1,171.18,100C171.31,100.43,169.67,100.12,169.35,100Z" style="fill: rgb(38, 50, 56); transform-origin: 168.504px 96.1771px;" id="eln329h4knffi" class="animable"></path><path d="M169.37,102a4.38,4.38,0,0,1-1.33,1.8,2,2,0,0,1-1.14.4c-.91,0-1.15-.75-1.18-1.46a5,5,0,0,1,.1-1.12A5.7,5.7,0,0,0,169.37,102Z" style="fill: rgb(38, 50, 56); transform-origin: 167.544px 102.91px;" id="eldrr3vo2km6w" class="animable"></path><path d="M168,103.77a2,2,0,0,1-1.14.4c-.91,0-1.15-.75-1.18-1.46A2.06,2.06,0,0,1,168,103.77Z" style="fill: rgb(255, 155, 188); transform-origin: 166.84px 103.411px;" id="ell16n2utjzd" class="animable"></path><path d="M148.21,100.45c1.78-.4,5.63-6.09,4.34-14.76,0,0,.62,7.86.22,9.1s2.15-3.21,1.21-10.21a28.73,28.73,0,0,0,7.77,2.53c3.45.38,5.46,0,5.65-.26s-4.9-1-6.46-2.3c0,0,9.43,2.63,13.52,2.27.48,0-.55-9.74-7.47-12.79s-16.07,3-18.31,6c0,0-3.05,1-5.68,6.14S146.3,100.89,148.21,100.45Z" style="fill: rgb(38, 50, 56); transform-origin: 158.45px 86.8291px;" id="elbeqkrezoiv" class="animable"></path><path d="M150.82,101s-4.15-4.39-6.19-2.84,1.58,8.26,4.33,8.85a2.69,2.69,0,0,0,3.35-2Z" style="fill: rgb(235, 148, 129); transform-origin: 148.171px 102.469px;" id="elkpyh56a7lea" class="animable"></path><path d="M145.71,100.06s0,.06,0,.07c1.94.47,3.15,2,4.09,3.68a1.48,1.48,0,0,0-2.25-.08c-.05,0,0,.11.06.1a1.62,1.62,0,0,1,1.88.3,8.08,8.08,0,0,1,1.08,1.32c.11.15.39,0,.3-.16l0,0C150.55,102.92,148.25,99.92,145.71,100.06Z" style="fill: rgb(38, 50, 56); transform-origin: 148.299px 102.784px;" id="elbu1gke9p8pm" class="animable"></path></g><g id="freepik--speech-bubble--inject-94" class="animable animator-active" style="transform-origin: 209.214px 84.3072px;"><path d="M190.68,91a12.17,12.17,0,0,1-2.07-6.71c0-8.5,9.33-15.39,20.83-15.39s20.82,6.89,20.82,15.39-9.32,15.38-20.82,15.38a25,25,0,0,1-14.37-4.25l-7.18,1.82Z" style="fill: rgb(255, 255, 255); transform-origin: 209.075px 84.2868px;" id="elxmri39c8bza" class="animable"></path><path d="M190.68,91a11.87,11.87,0,0,1-.56-12.91,16.36,16.36,0,0,1,4.59-5,21.86,21.86,0,0,1,6.07-3.13,27.3,27.3,0,0,1,13.54-1,22.68,22.68,0,0,1,12.21,5.94,14.43,14.43,0,0,1,3.67,5.86,11.89,11.89,0,0,1,.06,6.94,14.24,14.24,0,0,1-3.58,5.92,20.24,20.24,0,0,1-5.61,4A26.88,26.88,0,0,1,207.71,100a24.79,24.79,0,0,1-12.77-4.38l.19,0-7.21,1.72-.24.06.1-.23Zm0,0L188,97.28l-.14-.17L195,95.18l.1,0,.09.06a24.43,24.43,0,0,0,12.56,4,27.3,27.3,0,0,0,6.63-.47,24,24,0,0,0,6.29-2A19.16,19.16,0,0,0,226,92.91a13.53,13.53,0,0,0,3.32-5.54,11,11,0,0,0-.09-6.38,13.57,13.57,0,0,0-3.4-5.49,21.76,21.76,0,0,0-11.69-5.75,27.77,27.77,0,0,0-13.15.84A18.83,18.83,0,0,0,190.5,78.3a11.9,11.9,0,0,0-1.77,6.34A12.45,12.45,0,0,0,190.68,91Z" style="fill: rgb(38, 50, 56); transform-origin: 209.214px 84.3072px;" id="elgcq6xb2a2fl" class="animable"></path><path d="M216.93,84.28a2.16,2.16,0,1,0,2.16-2.16A2.16,2.16,0,0,0,216.93,84.28Z" style="fill: rgb(38, 50, 56); transform-origin: 219.09px 84.28px;" id="elcd9q6fje5ll" class="animable"></path><path d="M207.28,84.28a2.16,2.16,0,1,0,2.16-2.16A2.16,2.16,0,0,0,207.28,84.28Z" style="fill: rgb(38, 50, 56); transform-origin: 209.44px 84.28px;" id="elctev05p180m" class="animable"></path><path d="M197.62,84.28a2.16,2.16,0,1,0,2.16-2.16A2.16,2.16,0,0,0,197.62,84.28Z" style="fill: rgb(38, 50, 56); transform-origin: 199.78px 84.28px;" id="elvwlkrlfee9" class="animable"></path></g><g id="freepik--chart-1--inject-94" class="animable" style="transform-origin: 162.26px 287.945px;"><path d="M217.12,270.77l-5.24-.84-78.16,3.93,42.79,65.88h0l5.24.83A79.09,79.09,0,0,0,217.12,270.77Z" style="fill: rgb(64, 123, 255); transform-origin: 175.466px 305.25px;" id="el75trlfanayj" class="animable"></path><g id="elt2sxfwqww8r"><g style="opacity: 0.1; transform-origin: 196.862px 305.25px;" class="animable"><path d="M211.88,269.93l5.24.84a79.09,79.09,0,0,1-35.36,69.8l-5.25-.83A79.09,79.09,0,0,0,211.88,269.93Z" style="fill: rgb(38, 50, 56); transform-origin: 196.862px 305.25px;" id="el56akmp23t8" class="animable"></path></g></g><path d="M126.69,191.21l1.44.07-.59,0Z" style="fill: rgb(69, 90, 100); transform-origin: 127.41px 191.245px;" id="el9shrfqce1me" class="animable"></path><path d="M206.68,266.85c-.05-1.2-.13-2.4-.25-3.57h0l0-.48,0-.24c0-.14,0-.28-.05-.42h0l0-.16v-.1c0-.12,0-.24,0-.38v0a1.1,1.1,0,0,1,0-.18c0-.35-.09-.7-.14-1.05s-.12-.88-.2-1.42-.16-1-.25-1.58-.14-.81-.21-1.2V256c-.18-1-.38-1.93-.6-2.89-.07-.32-.15-.64-.23-1-.15-.65-.31-1.29-.48-1.93-.1-.38-.21-.76-.31-1.14-.17-.57-.33-1.15-.5-1.71-.12-.4-.25-.8-.38-1.19-.18-.54-.35-1.09-.54-1.62l-.43-1.2c-.19-.52-.39-1-.59-1.56s-.31-.8-.48-1.2-.42-1-.63-1.51-.35-.79-.53-1.18-.45-1-.69-1.48-.37-.77-.56-1.15-.5-1-.75-1.46l-.59-1.12c-.27-.49-.55-1-.82-1.45l-.61-1.06c-.3-.5-.61-1-.91-1.48-.21-.32-.41-.65-.61-1l-1.06-1.58-.55-.81c-.51-.73-1-1.45-1.57-2.16l-.11-.16q-.87-1.14-1.77-2.25l-.6-.71c-.41-.5-.82-1-1.25-1.48l-.76-.84c-.3-.34-.61-.69-.92-1l-.23-.23c-.39-.42-.8-.83-1.2-1.24l-.92-.94c-.43-.42-.87-.82-1.3-1.23s-.6-.58-.91-.86L179.59,211c-.29-.25-.56-.5-.85-.74-.59-.5-1.2-1-1.81-1.46l-.53-.43,0,0-.24-.19c-.65-.5-1.3-1-2-1.47l-.75-.53-1.53-1-.87-.57c-.49-.32-1-.63-1.49-.94-.29-.19-.59-.37-.9-.55l-.52-.33-1.22-.69-.56-.32q-1.17-.65-2.37-1.26l-.54-.27-1.9-.92-.78-.36-.71-.32-1.2-.51-.58-.24c-.82-.34-1.64-.67-2.48-1l-.56-.2c-.67-.24-1.34-.48-2-.7l-.77-.25-.6-.2-1.56-.46-.46-.14c-.86-.24-1.74-.47-2.61-.68l-.7-.17-2-.44-.81-.17-.55-.11-2.12-.37-5.1-.81-.14,0c-1-.17-2.07-.3-3.12-.41-.67-.08-1.34-.14-2-.2h-.09l-1.71-.14h0l-.66-.06.55.05h0c-.82-.05-1.64-.1-2.47-.13s-1.72-.06-2.59-.06h0c-1.35,0-2.69,0-4.05.1s-2.45.15-3.66.27l-1.56.17c-.57.06-1.14.14-1.72.22s-1.13.16-1.72.26l-1.67.29c-36.5,6.85-64,39.42-64.2,77.35,0,1.35,0,2.7.09,4.07,0,.68.08,1.35.13,2,0,.51.07,1,.12,1.52s.08.85.13,1.27.11,1,.18,1.53.13,1,.24,1.72c.06.43.13.86.27,1.7.06.34.12.67.19,1s.15.81.22,1.21a78.63,78.63,0,0,0,64.31,61.94c1.12.18,2.25.33,3.84.52l5.24.83,8.53-78.35Zm-5.49-4.41h0Zm0-.21h0Zm-.12-1.14v0h0Zm-.87-5.92c0-.06,0-.13-.05-.19a1.16,1.16,0,0,1,0,.18Z" style="fill: rgb(69, 90, 100); transform-origin: 125.895px 270.235px;" id="elr2ey93qjjwp" class="animable"></path><path d="M126.69,191.21l1.44.07-.59,0Z" style="fill: rgb(38, 50, 56); transform-origin: 127.41px 191.245px;" id="el9i0croak93" class="animable"></path><path d="M206.68,266.85c-.05-1.2-.13-2.4-.25-3.57h0l0-.48,0-.24c0-.14,0-.28-.05-.42h0l0-.16v-.1c0-.12,0-.24,0-.38v0a1.1,1.1,0,0,1,0-.18c0-.35-.09-.7-.14-1.05s-.12-.88-.2-1.42-.16-1-.25-1.58-.14-.81-.21-1.2V256c-.18-1-.38-1.93-.6-2.89-.07-.32-.15-.64-.23-1-.15-.65-.31-1.29-.48-1.93-.1-.38-.21-.76-.31-1.14-.17-.57-.33-1.15-.5-1.71-.12-.4-.25-.8-.38-1.19-.18-.54-.35-1.09-.54-1.62l-.43-1.2c-.19-.52-.39-1-.59-1.56s-.31-.8-.48-1.2-.42-1-.63-1.51-.35-.79-.53-1.18-.45-1-.69-1.48-.37-.77-.56-1.15-.5-1-.75-1.46l-.59-1.12c-.27-.49-.55-1-.82-1.45l-.61-1.06c-.3-.5-.61-1-.91-1.48-.21-.32-.41-.65-.61-1l-1.06-1.58-.55-.81c-.51-.73-1-1.45-1.57-2.16l-.11-.16q-.87-1.14-1.77-2.25l-.6-.71c-.41-.5-.82-1-1.25-1.48l-.76-.84c-.3-.34-.61-.69-.92-1l-.23-.23c-.39-.42-.8-.83-1.2-1.24l-.92-.94c-.43-.42-.87-.82-1.3-1.23s-.6-.58-.91-.86L179.59,211c-.29-.25-.56-.5-.85-.74-.59-.5-1.2-1-1.81-1.46l-.53-.43,0,0-.24-.19c-.65-.5-1.3-1-2-1.47l-.75-.53-1.53-1-.87-.57c-.49-.32-1-.63-1.49-.94-.29-.19-.59-.37-.9-.55l-.52-.33-1.22-.69-.56-.32q-1.17-.65-2.37-1.26l-.54-.27-1.9-.92-.78-.36-.71-.32-1.2-.51-.58-.24c-.82-.34-1.64-.67-2.48-1l-.56-.2c-.67-.24-1.34-.48-2-.7l-.77-.25-.6-.2-1.56-.46-.46-.14c-.86-.24-1.74-.47-2.61-.68l-.7-.17-2-.44-.81-.17-.55-.11-2.12-.37-5.1-.81-.14,0c-1.72-.28-3.47-.47-5.22-.62l-1.72-.14-.66-.06.55.05c-1.67-.11-3.36-.18-5.06-.19a92.38,92.38,0,0,1,15.19,1.56c.79.15,1.58.34,2.37.52l.42.1c.92.23,1.84.47,2.75.72l.24.08c.8.23,1.6.47,2.39.73l.62.2c.76.25,1.51.51,2.26.79l.35.12c.86.32,1.72.66,2.57,1l.48.21c.68.28,1.35.58,2,.88l.7.32c.69.32,1.38.66,2.06,1l.4.2c.82.41,1.63.85,2.43,1.29l.46.27c.63.35,1.24.71,1.86,1.08.28.16.55.33.83.51.53.32,1.06.66,1.58,1l.8.52,1.63,1.12.67.47c.7.51,1.39,1,2.07,1.55l.16.12,1.1.89c.43.34.86.68,1.28,1s.76.65,1.14,1,.78.68,1.16,1,.76.7,1.13,1.05l1.1,1,1.1,1.12c.35.35.7.7,1,1.07s.86.93,1.29,1.4l.62.68c.48.55,1,1.1,1.41,1.66l.45.53q1.84,2.26,3.54,4.66l0,.06c.54.77,1.07,1.55,1.58,2.34l.36.58c.4.62.79,1.24,1.17,1.87l.45.78c.33.58.67,1.15,1,1.74l.47.88c.3.56.59,1.13.88,1.69.16.32.31.64.46,1,.27.56.54,1.12.8,1.69.15.33.3.66.44,1,.25.57.49,1.14.73,1.71l.41,1c.23.58.45,1.16.66,1.75.12.34.25.67.37,1,.21.61.41,1.21.61,1.82.11.33.22.66.32,1,.2.64.39,1.3.57,1.95.09.3.18.59.26.9.2.74.38,1.49.56,2.25.05.21.11.42.16.63.22,1,.43,2,.61,3,0-.14-.06-.28-.08-.42,0,.13.05.25.07.37a.13.13,0,0,1,0,.06h0q.1.59.21,1.2c.09.54.17,1.06.25,1.58s.15,1,.2,1.42.11.83.15,1.25c0,.14,0,.27.05.39v.06c0,.15,0,.28,0,.4v0c0,.12,0,.22,0,.32v.05a2.29,2.29,0,0,1,0,.25v.05a1.49,1.49,0,0,0,0,.21h0c.12,1.18.19,2.38.25,3.58l-78.15,3.92-8.53,78.36,5.24.83,8.53-78.35Z" style="fill: rgb(38, 50, 56); transform-origin: 160.625px 270.21px;" id="el26n3xrfzht2" class="animable"></path><path d="M134,279.72l-5.24-.84-8.53,78.36h0l5.21.83c1.42.16,2.85.27,4.28.34s2.62.11,3.94.11,2.68,0,4-.1l1.89-.11h0l.23,0-5.24-.83-.22,0h0l.23,0,5.24.83,1.77-.14,1.53-.19,1-.11c1-.14,2-.3,3-.46l.94-.17A77.35,77.35,0,0,0,176.8,345.6Z" style="fill: rgb(55, 71, 79); transform-origin: 148.515px 318.7px;" id="eluvbpgu4a0sg" class="animable"></path><path d="M134.41,357.47h0l-1.9.12c-1.35.07-2.69.1-4,.1s-2.63,0-3.93-.11c-.72,0-1.43-.08-2.15-.14l-2.13-.2h0l5.24.83c1.42.16,2.85.27,4.28.34s2.62.11,3.94.11,2.68,0,4-.1l1.89-.11h0l.23,0-5.24-.83Z" style="fill: rgb(38, 50, 56); transform-origin: 130.09px 357.88px;" id="elltcy64bepk" class="animable"></path><path d="M134,279.72l-5.24-.84,42.78,65.89a77.35,77.35,0,0,1-28.73,11.61l-.94.16c-1,.17-2,.33-3,.47l-.95.11-1.54.19-1.76.14,5.24.83,1.77-.14,1.53-.19,1-.11c1-.14,2-.3,3-.46l.94-.17A77.35,77.35,0,0,0,176.8,345.6Z" style="fill: rgb(38, 50, 56); transform-origin: 152.78px 318.58px;" id="elozljkj2w3" class="animable"></path><g id="el8x5oixru69t"><rect x="142.48" y="253.79" width="1.5" height="1" style="fill: rgb(38, 50, 56); transform-origin: 143.23px 254.29px; transform: rotate(-45deg);" class="animable"></rect></g><path d="M146.2,252l-.71-.71,2.08-2.08.71.71Zm4.16-4.17-.71-.7,2.08-2.08.71.7Zm4.16-4.16-.71-.71,2.08-2.08.71.71Zm4.16-4.16-.7-.71,2.08-2.08.7.71Zm4.17-4.16-.71-.71,2.08-2.08.71.71Zm4.16-4.16-.71-.71,2.08-2.08.71.7Zm4.16-4.17-.71-.7,2.08-2.09.71.71Zm4.16-4.16-.7-.71,2.08-2.08.7.71Zm4.16-4.16-.7-.71,2.08-2.08.71.71Z" style="fill: rgb(38, 50, 56); transform-origin: 163.535px 233.955px;" id="el5ysb4xbw7rw" class="animable"></path><polygon points="183.66 214.58 182.95 213.87 184.16 212.66 185.86 212.66 185.86 213.66 184.57 213.66 183.66 214.58" style="fill: rgb(38, 50, 56); transform-origin: 184.405px 213.62px;" id="elvyqbuuvstik" class="animable"></polygon><path d="M217.51,213.66h-3.17v-1h3.17Zm-6.33,0H208v-1h3.17Zm-6.33,0h-3.17v-1h3.17Zm-6.33,0h-3.16v-1h3.16Zm-6.33,0H189v-1h3.16Z" style="fill: rgb(38, 50, 56); transform-origin: 203.255px 213.16px;" id="elgosrg7a1hxd" class="animable"></path><rect x="220.67" y="212.66" width="1.5" height="1" style="fill: rgb(38, 50, 56); transform-origin: 221.42px 213.16px;" id="el3k1j8v8l5ga" class="animable"></rect><path d="M141,260.85a3.71,3.71,0,1,1,3.71-3.71A3.71,3.71,0,0,1,141,260.85Zm0-6.41a2.71,2.71,0,1,0,2.71,2.7A2.7,2.7,0,0,0,141,254.44Z" style="fill: rgb(38, 50, 56); transform-origin: 141px 257.14px;" id="el2qdkw8nzz0i" class="animable"></path><rect x="227.65" y="213.16" width="9.99" height="9.99" style="fill: rgb(69, 90, 100); transform-origin: 232.645px 218.155px;" id="eltnlalfntuek" class="animable"></rect><rect x="227.21" y="229.42" width="50.18" height="1.6" style="fill: rgb(38, 50, 56); transform-origin: 252.3px 230.22px;" id="el5uka1hk8d3b" class="animable"></rect><rect x="227.21" y="233.62" width="35.96" height="1.6" style="fill: rgb(166, 166, 166); transform-origin: 245.19px 234.42px;" id="el38047rtz4kf" class="animable"></rect><rect x="227.21" y="237.81" width="42.47" height="1.6" style="fill: rgb(166, 166, 166); transform-origin: 248.445px 238.61px;" id="elhnf14bwkyrl" class="animable"></rect><path d="M221.08,291.42h-3v-1h3Zm-6,0h-3v-1h3Zm-6,0h-3v-1h3Zm-6,0h-3v-1h3Zm-6,0h-3v-1h3Zm-6,0h-3v-1h3Zm-6,0h-3v-1h3Zm-6,0h-3v-1h3Zm-6,0h-3v-1h3Zm-6,0h-3v-1h3Z" style="fill: rgb(38, 50, 56); transform-origin: 192.58px 290.92px;" id="elqw3i2bcjpet" class="animable"></path><path d="M160.88,294.63a3.71,3.71,0,1,1,3.7-3.71A3.71,3.71,0,0,1,160.88,294.63Zm0-6.41a2.71,2.71,0,1,0,2.7,2.7A2.7,2.7,0,0,0,160.88,288.22Z" style="fill: rgb(38, 50, 56); transform-origin: 160.87px 290.92px;" id="elidbm4hqv0m" class="animable"></path><rect x="227.65" y="290.92" width="9.99" height="9.99" style="fill: rgb(64, 123, 255); transform-origin: 232.645px 295.915px;" id="elx8gtn3paa7" class="animable"></rect><rect x="227.21" y="307.28" width="35" height="1.6" style="fill: rgb(38, 50, 56); transform-origin: 244.71px 308.08px;" id="eljhw0584e29p" class="animable"></rect><rect x="227.21" y="311.47" width="46.35" height="1.6" style="fill: rgb(166, 166, 166); transform-origin: 250.385px 312.27px;" id="el5wulf2ombo" class="animable"></rect><rect x="227.21" y="315.67" width="22.9" height="1.6" style="fill: rgb(166, 166, 166); transform-origin: 238.66px 316.47px;" id="elywq532nkt9" class="animable"></rect><path d="M221.53,358.25h-3v-1h3Zm-6,0h-3v-1h3Zm-6,0h-3v-1h3Zm-6,0h-3v-1h3Zm-6,0h-3v-1h3Zm-6,0h-3v-1h3Zm-6,0h-3v-1h3Zm-6,0h-3v-1h3Zm-6,0h-3v-1h3Zm-6,0h-3v-1h3Zm-6.09-.77-2.12-2.12.7-.71,2.13,2.12Zm-4.24-4.24-2.13-2.12.71-.71,2.12,2.12ZM153,349l-2.12-2.12.71-.7,2.12,2.12Zm-4.24-4.24-2.12-2.12.71-.71,2.12,2.12Zm-4.24-4.24-2.12-2.12.7-.71,2.13,2.12Z" style="fill: rgb(38, 50, 56); transform-origin: 181.965px 347.97px;" id="el7ank905jy0t" class="animable"></path><path d="M141,339.47a3.7,3.7,0,1,1,3.71-3.7A3.7,3.7,0,0,1,141,339.47Zm0-6.4a2.7,2.7,0,1,0,2.71,2.7A2.7,2.7,0,0,0,141,333.07Z" style="fill: rgb(38, 50, 56); transform-origin: 141.01px 335.77px;" id="elh8tgpthptfo" class="animable"></path><rect x="227.65" y="357.75" width="9.99" height="9.99" style="fill: rgb(38, 50, 56); transform-origin: 232.645px 362.745px;" id="elr8z4n1bead" class="animable"></rect><rect x="227.21" y="374.69" width="52.2" height="1.6" style="fill: rgb(38, 50, 56); transform-origin: 253.31px 375.49px;" id="eli6i4yqbrrwb" class="animable"></rect><rect x="227.21" y="378.88" width="35" height="1.6" style="fill: rgb(166, 166, 166); transform-origin: 244.71px 379.68px;" id="elenlzp0b2dwm" class="animable"></rect><rect x="227.21" y="383.08" width="45.81" height="1.6" style="fill: rgb(166, 166, 166); transform-origin: 250.115px 383.88px;" id="elmxzktfknp9c" class="animable"></rect></g><defs>     <filter id="active" height="200%">         <feMorphology in="SourceAlpha" result="DILATED" operator="dilate" radius="2"></feMorphology>                <feFlood flood-color="#32DFEC" flood-opacity="1" result="PINK"></feFlood>        <feComposite in="PINK" in2="DILATED" operator="in" result="OUTLINE"></feComposite>        <feMerge>            <feMergeNode in="OUTLINE"></feMergeNode>            <feMergeNode in="SourceGraphic"></feMergeNode>        </feMerge>    </filter>    <filter id="hover" height="200%">        <feMorphology in="SourceAlpha" result="DILATED" operator="dilate" radius="2"></feMorphology>                <feFlood flood-color="#ff0000" flood-opacity="0.5" result="PINK"></feFlood>        <feComposite in="PINK" in2="DILATED" operator="in" result="OUTLINE"></feComposite>        <feMerge>            <feMergeNode in="OUTLINE"></feMergeNode>            <feMergeNode in="SourceGraphic"></feMergeNode>        </feMerge>            <feColorMatrix type="matrix" values="0   0   0   0   0                0   1   0   0   0                0   0   0   0   0                0   0   0   1   0 "></feColorMatrix>    </filter></defs></svg>